<svg fill="none" height="88" viewBox="0 0 88 88" width="88" xmlns="http://www.w3.org/2000/svg"><circle cx="44" cy="44" fill="#e6f2f8" r="44"/><path d="m16.4375 52.625h1.4375v-9.7031c0-1.0781.5391-2.2461 1.3477-3.0547l8.8945-8.8945c.8086-.8086 1.9766-1.3477 3.0547-1.3477h3.9531v-4.3125c0-2.3359 1.9766-4.3125 4.3125-4.3125h23c2.4258 0 4.3125 1.9766 4.3125 4.3125v4.3125h5.0312c.4493 0 .7188.3594.7188.7188v1.4374c0 .4493-.2695.7188-.7188.7188h-24.4374c-.3594 0-.7188.3594-.7188.7188v1.4374c0 .4493.3594.7188.7188.7188h21.5624c.4493 0 .7188.3594.7188.7188v1.4374c0 .4493-.2695.7188-.7188.7188h-18.6874c-.3594 0-.7188.3594-.7188.7188v1.4374c0 .4493.3594.7188.7188.7188h21.5624c.4493 0 .7188.3594.7188.7188v1.4374c0 .4493-.2695.7188-.7188.7188h-18.6874c-.3594 0-.7188.3594-.7188.7188v1.4374c0 .4493.3594.7188.7188.7188h13.6562v11.5c0 4.7617-3.8633 8.625-8.625 8.625s-8.625-3.8633-8.625-8.625h-11.5c0 4.7617-3.8633 8.625-8.625 8.625s-8.625-3.8633-8.625-8.625h-4.3125c-.7187 0-1.4375-.6289-1.4375-1.4375v-2.875c0-.7187.7188-1.4375 1.4375-1.4375zm41.6875 10.0625c2.4258 0 4.3125-1.8867 4.3125-4.3125 0-2.3359-1.8867-4.3125-4.3125-4.3125-2.3359 0-4.3125 1.9766-4.3125 4.3125 0 2.4258 1.9766 4.3125 4.3125 4.3125zm-28.75 0c2.4258 0 4.3125-1.8867 4.3125-4.3125 0-2.3359-1.8867-4.3125-4.3125-4.3125-2.3359 0-4.3125 1.9766-4.3125 4.3125 0 2.4258 1.9766 4.3125 4.3125 4.3125zm-7.1875-18.6875h12.9375v-10.0625h-3.9531l-8.9844 8.9844z" fill="#00507a"/></svg>