<svg width="24" height="24" viewBox="0 0 24 24" fill="none" xmlns="http://www.w3.org/2000/svg">
<path d="M13.9537 8.54308C11.8214 8.61942 6.53217 9.20045 6.53217 13.5263C6.53217 18.1703 12.5876 18.3612 14.5667 15.3585C14.8513 15.7911 16.1167 16.9489 16.5501 17.3433L19.0371 14.9683C19.0371 14.9683 17.6229 13.8953 17.6229 12.729V6.4904C17.6229 5.41741 16.5501 3 12.7058 3C8.85276 3 6.80801 5.33259 6.80801 7.42344L10.0262 7.71183C10.7399 5.6125 12.3993 5.6125 12.3993 5.6125C14.1814 5.60826 13.9537 6.87634 13.9537 8.54308ZM13.9537 12.2243C13.9537 15.6172 10.267 15.1083 10.267 12.9538C10.267 10.952 12.4781 10.5491 13.9537 10.5025V12.2243ZM19.9084 19.1585C19.5713 19.5826 16.8435 22 12.268 22C7.69247 22 4.18968 18.9676 3.11695 17.7165C2.81922 17.39 3.16074 17.2373 3.35777 17.3645C6.5672 19.2518 11.5806 22.3605 19.6676 18.6496C19.996 18.4926 20.25 18.7344 19.9084 19.1585ZM21.6511 19.2518C21.3665 19.9219 20.9505 20.3884 20.7228 20.5665C20.482 20.7574 20.3069 20.681 20.4382 20.4054C20.5696 20.1297 21.2833 18.4333 20.9943 18.0728C20.7097 17.7208 19.3743 17.8904 18.8926 17.9371C18.4197 17.9795 18.3234 18.0219 18.2796 17.9243C18.1789 17.6826 19.2298 17.267 19.9216 17.1821C20.609 17.1058 21.7167 17.1482 21.9357 17.4239C22.0977 17.6402 21.9357 18.5732 21.6511 19.2518Z" fill="black"/>
</svg>
