<svg width="24" height="24" viewBox="0 0 24 24" fill="none" xmlns="http://www.w3.org/2000/svg">
<path d="M13.4307 6.71087C13.1538 6.79571 12.7475 6.86716 12.1849 6.91628C12.234 4.38446 13.52 2.60281 16.1143 2C16.5296 3.85756 14.9489 6.20183 13.4307 6.71087V6.71087ZM18.8471 9.95713C19.1328 9.5374 19.5883 9.06854 20.2134 8.54164C19.2177 7.30922 18.0656 6.56352 16.4135 6.56352C14.8328 6.56352 13.5021 7.3762 12.5287 7.3762C11.7026 7.3762 10.2112 6.65729 8.75553 6.65729C5.64769 6.65729 4 9.69815 4 12.864C4 16.3827 6.66577 22 9.36727 22C10.43 22 11.3856 21.1962 12.6493 21.1962C13.9576 21.1962 15.0069 21.9643 16.2349 21.9643C18.2889 21.9643 20.1911 18.5037 20.7895 16.6193C18.6997 15.9808 17.0208 12.5916 18.8471 9.95713Z" fill="black"/>
</svg>
