<svg width="24" height="24" viewBox="0 0 24 24" fill="none" xmlns="http://www.w3.org/2000/svg">
<path d="M3.25 8.25003H15.7461L15.7492 11.0625C15.7492 11.4355 15.97 11.7731 16.3121 11.9219C16.654 12.0708 17.0515 12.0031 17.325 11.7498L21.7 7.6873C22.1 7.3162 22.1 6.68378 21.7 6.31269L17.325 2.25019C17.0518 1.99691 16.6543 1.92921 16.3121 2.078C15.97 2.22706 15.7492 2.56472 15.7492 2.93737L15.7461 5.75003H3.25C2.55898 5.75003 2 6.30862 2 6.96487C2 7.62112 2.55898 8.25003 3.25 8.25003ZM20.75 15.75H8.25391L8.25 12.9024C8.25 12.5294 8.02922 12.1918 7.68711 12.043C7.34766 11.9297 6.94922 11.9961 6.67578 12.25L2.30078 16.3125C1.90078 16.6836 1.90078 17.316 2.30078 17.6871L6.67578 21.7496C6.94891 22.0029 7.34648 22.0707 7.68867 21.9217C8.03125 21.7735 8.25 21.4336 8.25 21.0625L8.25391 18.25H20.75C21.441 18.25 22 17.691 22 17C22 16.309 21.4414 15.75 20.75 15.75Z" fill="black"/>
</svg>
