<svg width="24" height="24" viewBox="0 0 24 24" fill="none" xmlns="http://www.w3.org/2000/svg">
<path d="M18.6573 14.1246L12.8239 19.958C12.5978 20.1877 12.2989 20.3007 11.9999 20.3007C11.7009 20.3007 11.4027 20.1868 11.1752 19.9589L5.3418 14.1255C4.88607 13.6698 4.88607 12.9315 5.3418 12.4758C5.79754 12.02 6.53583 12.02 6.99156 12.4758L10.8332 16.3194V5.13387C10.8332 4.48891 11.3557 4 11.9671 4C12.5785 4 13.1666 4.48891 13.1666 5.13387V16.3194L17.0093 12.4767C17.4651 12.0209 18.2034 12.0209 18.6591 12.4767C19.1148 12.9324 19.113 13.6689 18.6573 14.1246Z" fill="black"/>
</svg>
