<svg width="24" height="24" viewBox="0 0 24 24" fill="none" xmlns="http://www.w3.org/2000/svg">
<path d="M18.5664 13.2735C17.9754 12.6829 17 13.1007 17 13.9364V15.8126H15.125L8 6.3126C7.76562 6.0001 7.39453 5.8126 7 5.8126H3.25C2.55898 5.8126 2 6.3712 2 7.0626C2 7.75401 2.55898 8.3126 3.25 8.3126H6.375L13.5 17.8126C13.7344 18.129 14.1055 18.3126 14.5 18.3126H16.9988V20.1853C16.9988 21.0208 18.009 21.4399 18.6 20.8493L21.6898 17.7251C22.0565 17.3584 22.0565 16.7646 21.6898 16.3982L18.5664 13.2735ZM15.125 8.3126H16.9988V10.1888C16.9988 11.0243 18.0094 11.4423 18.5652 10.8517L21.6551 7.72745C22.0218 7.36061 22.0217 6.7669 21.655 6.40049L18.5652 3.27628C17.9742 2.68565 16.964 3.10475 16.964 3.94034V5.8126H14.5C14.107 5.8126 13.7359 5.99815 13.5004 6.31299L11.9219 8.41807L13.4492 10.5001L15.125 8.3126ZM6.375 15.8126H3.25C2.55898 15.8126 2 16.3716 2 17.0626C2 17.7536 2.55898 18.3126 3.25 18.3126H7C7.39297 18.3126 7.76406 18.1271 7.99961 17.8122L9.57773 15.7079L8.01562 13.6251L6.375 15.8126Z" fill="black"/>
</svg>
