<svg width="24" height="24" viewBox="0 0 24 24" fill="none" xmlns="http://www.w3.org/2000/svg">
<path d="M13.1423 4.14279V4.82847C15.7493 5.35808 17.7135 7.66403 17.7135 10.4282V11.0996C17.7135 12.7816 18.3313 14.3994 19.4456 15.6564L19.7098 15.9529C20.0098 16.2921 20.0848 16.7707 19.8991 17.1814C19.7134 17.592 19.3063 17.8563 18.8563 17.8563H5.14279C4.69281 17.8563 4.28465 17.592 4.10031 17.1814C3.91596 16.7707 3.9897 16.2921 4.28869 15.9529L4.55353 15.6564C5.66918 14.3994 6.28558 12.7816 6.28558 11.0996V10.4282C6.28558 7.66403 8.21762 5.35808 10.8568 4.82847V4.14279C10.8568 3.51176 11.3674 3 11.9995 3C12.6317 3 13.1423 3.51176 13.1423 4.14279ZM11.9995 21.2847C11.3924 21.2847 10.8103 21.0454 10.3818 20.6169C9.95323 20.1883 9.71396 19.5741 9.71396 18.9991H14.2851C14.2851 19.5741 14.0459 20.1883 13.6173 20.6169C13.1888 21.0454 12.5745 21.2847 11.9995 21.2847Z" fill="black"/>
</svg>
