<svg width="24" height="24" viewBox="0 0 24 24" fill="none" xmlns="http://www.w3.org/2000/svg">
<path d="M9.71429 4.14286V5.28571H14.2857V4.14286C14.2857 3.51179 14.7964 3 15.4286 3C16.0607 3 16.5714 3.51179 16.5714 4.14286V5.28571H18.2857C19.2321 5.28571 20 6.05321 20 7V8.71429H4V7C4 6.05321 4.7675 5.28571 5.71429 5.28571H7.42857V4.14286C7.42857 3.51179 7.93929 3 8.57143 3C9.20357 3 9.71429 3.51179 9.71429 4.14286ZM4 9.85714H20V19.5714C20 20.5179 19.2321 21.2857 18.2857 21.2857H5.71429C4.7675 21.2857 4 20.5179 4 19.5714V9.85714ZM6.85714 12.1429C6.54143 12.1429 6.28571 12.4 6.28571 12.7143V16.1429C6.28571 16.4571 6.54143 16.7143 6.85714 16.7143H10.2857C10.6 16.7143 10.8571 16.4571 10.8571 16.1429V12.7143C10.8571 12.4 10.6 12.1429 10.2857 12.1429H6.85714Z" fill="black"/>
</svg>
