<svg width="24" height="24" viewBox="0 0 24 24" fill="none" xmlns="http://www.w3.org/2000/svg">
<path d="M18.0806 17.4451C17.16 17.4451 16.4451 18.1913 16.4451 19.1118C16.4451 20.0323 17.1913 20.7786 18.0806 20.7786C18.9698 20.7786 19.7161 20.0323 19.7161 19.1118C19.7161 18.1913 19.032 17.4451 18.0806 17.4451ZM8.08013 17.4451C7.1596 17.4451 6.44464 18.1913 6.44464 19.1118C6.44464 20.0323 7.1912 20.7786 8.08013 20.7786C8.96905 20.7786 9.71561 20.0323 9.71561 19.1118C9.71561 18.1913 9.03156 17.4451 8.08013 17.4451ZM21.7752 4.55319C21.563 4.27214 21.2397 4.11116 20.8876 4.11116H6.20504L6.15296 3.67746C6.07657 3.28439 5.7328 3 5.33348 3H2.80212C2.37328 3 2 3.37328 2 3.80212C2 4.23096 2.37328 4.66674 2.80212 4.66674H4.61261L6.70576 15.6568C6.81271 16.0492 7.15648 16.3339 7.5558 16.3339H18.9452C19.4053 16.3339 19.7786 15.9606 19.7786 15.5318C19.7786 15.0387 19.407 14.6672 18.9452 14.6672H8.2468L7.92734 13.0004H18.9834C19.4796 13.0004 19.9154 12.6716 20.0518 12.1945L21.9568 5.55879C22.053 5.18933 21.987 4.83446 21.7752 4.55319Z" fill="black"/>
</svg>
