<svg width="24" height="24" viewBox="0 0 24 24" fill="none" xmlns="http://www.w3.org/2000/svg">
<path d="M9.47719 20.9649C6.46561 20.9649 4 18.5018 4 15.4246C4 13.9533 4.57298 12.5698 5.61333 11.5298L13.0098 4.12982C13.786 3.38702 14.8456 3 15.9053 3C18.5404 3 20 5.13579 20 7.05614C20 8.15018 19.5744 9.17825 18.8007 9.95158L12.0077 16.7481C11.5014 17.2547 10.8067 17.5081 10.1119 17.5081C7.9814 17.5081 7.43228 15.607 7.43228 14.8523C7.43228 14.1656 7.69361 13.4793 8.21614 12.9565L13.2126 7.96C13.4049 7.76768 13.6568 7.67151 13.9084 7.67151C14.434 7.67151 14.8926 8.09502 14.8926 8.65607C14.8926 8.908 14.7965 9.15993 14.6042 9.35221L9.60775 14.3487C9.46905 14.4874 9.39968 14.6698 9.39968 14.8522C9.39968 15.2631 9.73509 15.5641 10.1116 15.5641C10.294 15.5641 10.4762 15.4946 10.6155 15.3556L17.4085 8.55912C17.8099 8.15737 18.0309 7.62333 18.0309 7.05597C18.0309 6.06088 17.2748 4.94965 15.906 4.94965C15.3551 4.94965 14.8039 5.1506 14.4021 5.55211L7.00351 12.9509C6.33509 13.6197 5.96702 14.5084 5.96702 15.454C5.96702 17.1126 7.22702 18.9604 9.50737 18.9604C10.4242 18.9604 11.3418 18.6263 12.0105 17.9579L17.607 12.3579C17.7993 12.1656 18.0512 12.0694 18.3028 12.0694C18.8284 12.0694 19.287 12.4929 19.287 13.054C19.287 13.3059 19.1909 13.5579 18.9986 13.7501L13.4021 19.3501C12.3614 20.393 10.9789 20.9649 9.47719 20.9649Z" fill="black"/>
</svg>
