<svg width="24" height="24" viewBox="0 0 24 24" fill="none" xmlns="http://www.w3.org/2000/svg">
<path d="M12 2C6.47656 2 2 6.47656 2 12C2 17.5234 6.47656 22 12 22C17.5234 22 22 17.5234 22 12C22 6.47656 17.5234 2 12 2ZM15.1289 13.8359C15.4951 14.2021 15.4951 14.7953 15.1289 15.1617C14.7625 15.5282 14.1695 15.5279 13.8031 15.1617L12 13.3242L10.1629 15.1613C9.79645 15.5278 9.20352 15.5275 8.83711 15.1613C8.4709 14.7951 8.4709 14.202 8.83711 13.8355L10.6742 11.9984L8.83594 10.1289C8.46973 9.7627 8.46973 9.16953 8.83594 8.80313C9.20215 8.43672 9.79531 8.43691 10.1617 8.80313L12 10.6758L13.8371 8.83867C14.2033 8.47246 14.7965 8.47246 15.1629 8.83867C15.5293 9.20488 15.5291 9.79805 15.1629 10.1645L13.3258 12.0016L15.1289 13.8359Z" fill="black"/>
</svg>
