<svg width="24" height="24" viewBox="0 0 24 24" fill="none" xmlns="http://www.w3.org/2000/svg">
<path d="M18.5877 16.6114C19.1345 17.1583 19.1345 18.0441 18.5877 18.591C18.3165 18.8644 17.9577 19 17.599 19C17.2403 19 16.8824 18.8633 16.6095 18.5899L11.9995 13.9823L7.38988 18.5888C7.11646 18.8644 6.75818 19 6.39989 19C6.04161 19 5.68376 18.8644 5.41012 18.5888C4.86329 18.042 4.86329 17.1561 5.41012 16.6092L10.021 11.9984L5.41012 7.38966C4.86329 6.84283 4.86329 5.95696 5.41012 5.41012C5.95696 4.86329 6.84282 4.86329 7.38966 5.41012L11.9995 10.0232L16.6103 5.41231C17.1572 4.86548 18.043 4.86548 18.5899 5.41231C19.1367 5.95914 19.1367 6.84501 18.5899 7.39184L13.979 12.0027L18.5877 16.6114Z" fill="black"/>
</svg>
