<svg width="24" height="24" viewBox="0 0 24 24" fill="none" xmlns="http://www.w3.org/2000/svg">
<path fill-rule="evenodd" clip-rule="evenodd" d="M8.8 17.1L8.8 6.9C8.8 6.40219 8.39725 6 7.89972 6C7.40219 6 7 6.40247 7 6.9L7 17.1C7 17.5975 7.40219 18 7.89972 18C8.39725 18 8.8 17.5975 8.8 17.1ZM11.1943 11.3937C11.0269 11.5609 10.9432 11.7803 10.9432 11.9996C10.9432 12.2192 11.0262 12.4389 11.1936 12.6063L16.3362 17.7489C16.671 18.0837 17.2134 18.0837 17.5482 17.7489C17.883 17.4141 17.883 16.8717 17.5482 16.5369L13.0109 11.9996L17.5489 7.4631C17.8837 7.1283 17.8837 6.58591 17.5489 6.2511C17.2141 5.9163 16.6717 5.9163 16.3369 6.2511L11.1943 11.3937Z" fill="black"/>
</svg>
