<svg width="24" height="24" viewBox="0 0 24 24" fill="none" xmlns="http://www.w3.org/2000/svg">
<path d="M5.90036 19.6787C5.95614 20.5659 6.7225 21.2859 7.61107 21.2859H16.3896C17.2782 21.2859 18.0443 20.5659 18.1004 19.6787L18.8571 7.57157H5.14286L5.90036 19.6787ZM19.4286 4.143H15.4286L15.015 3.31586C14.9183 3.12229 14.7204 3 14.5039 3H9.49643C9.27996 3 9.08214 3.12229 8.98536 3.31586L8.57143 4.143H4.57143C4.25586 4.143 4 4.39879 4 4.71443V5.85729C4 6.17286 4.25586 6.42871 4.57143 6.42871H19.4286C19.7442 6.42871 20 6.17286 20 5.85729V4.71443C20 4.39871 19.7429 4.143 19.4286 4.143Z" fill="black"/>
</svg>
