<svg width="24" height="24" viewBox="0 0 24 24" fill="none" xmlns="http://www.w3.org/2000/svg">
<path d="M21 15.2717C21 15.0625 20.885 14.8603 20.6968 14.7517L18.9739 13.757C19.052 13.3349 19.0964 12.8728 19.0964 12.4625C19.0964 12.0522 19.0505 11.5884 18.9729 11.1681L20.6958 10.1734C20.884 10.0647 20.999 9.86252 20.999 9.65335C20.999 9.13217 19.4473 5.99253 18.6385 5.99253C18.5339 5.99253 18.4283 6.01938 18.3337 6.07396L16.6068 7.07122C15.9508 6.51075 15.1931 6.07163 14.3651 5.77814V3.78657C14.3651 3.5085 14.1743 3.25874 13.902 3.20182C13.2858 3.07308 12.6537 3 11.9995 3C11.3453 3 10.7113 3.07308 10.0966 3.20186C9.82607 3.25889 9.63387 3.50861 9.63387 3.78657V5.77814C8.80589 6.07163 8.04815 6.51075 7.39391 7.06963L5.66515 6.07385C5.57089 6.01914 5.46518 5.99216 5.36057 5.99216C4.63166 5.99216 3.00011 9.02128 3.00011 9.65298C3.00011 9.86219 3.11514 10.0644 3.30332 10.173L5.02617 11.1677C4.94843 11.5902 4.9026 12.019 4.9026 12.4625C4.9026 12.9061 4.94851 13.3367 5.02605 13.757L3.30321 14.7517C3.11499 14.8604 3 15.0626 3 15.2717C3 15.7929 4.55171 18.9325 5.36046 18.9325C5.46514 18.9325 5.57071 18.9057 5.66526 18.8511L7.39217 17.8539C8.04815 18.4136 8.80589 18.8534 9.63387 19.1455V21.137C9.63387 21.4151 9.82467 21.6649 10.097 21.7218C10.7132 21.8511 11.3453 21.9251 11.9662 21.9251C12.5872 21.9251 13.2544 21.852 13.8691 21.7232C14.1729 21.6331 14.3651 21.415 14.3651 21.1378V19.1462C15.1938 18.8528 15.952 18.4136 16.6069 17.8536L18.3339 18.8509C18.4284 18.9055 18.534 18.9323 18.6387 18.9323C19.3662 18.9311 21 15.9038 21 15.2717ZM11.9995 15.4196C10.3691 15.4196 9.04246 14.093 9.04246 12.4625C9.04246 10.8321 10.3694 9.50549 11.9995 9.50549C13.6296 9.50549 14.9565 10.8321 14.9565 12.4625C14.9565 14.093 13.6296 15.4196 11.9995 15.4196Z" fill="black"/>
</svg>
