<svg width="24" height="24" viewBox="0 0 24 24" fill="none" xmlns="http://www.w3.org/2000/svg">
<path fill-rule="evenodd" clip-rule="evenodd" d="M6.06934 2H17.9307C20.1781 2 22 3.82108 22 6.06749V17.9325C22 20.1789 20.1781 22 17.9307 22H6.06934C3.82191 22 2 20.1789 2 17.9325V6.06749C2 3.82108 3.82191 2 6.06934 2ZM12.4417 11.8347C12.7017 11.9506 12.9361 12.1168 13.1314 12.3238C13.5131 12.776 13.7087 13.3562 13.6788 13.9471C13.6861 14.3922 13.5793 14.8317 13.3686 15.2239C13.1685 15.5904 12.8635 15.8889 12.4927 16.0812C12.1325 16.266 11.7439 16.3893 11.3431 16.446C10.6043 16.5321 9.8605 16.5686 9.1168 16.5554H6.5438V7.47196H9.06205C9.78105 7.45346 10.5005 7.48393 11.2153 7.56316C11.5791 7.61928 11.9308 7.73645 12.2555 7.90972C12.5757 8.08272 12.8412 8.34174 13.0219 8.65755C13.1971 8.98878 13.285 9.35913 13.2774 9.73371C13.2982 10.1765 13.1553 10.6115 12.8759 10.9558C12.6022 11.2659 12.2007 11.4847 11.6168 11.6489C11.9014 11.6557 12.1817 11.7189 12.4417 11.8347ZM9.37227 9.46011H8.84307L8.82482 9.44187V11.2659H9.31753C9.93797 11.2659 10.3394 11.1929 10.5766 11.0652C10.6923 10.9924 10.7857 10.8892 10.8468 10.767C10.908 10.6449 10.9344 10.5083 10.9234 10.3721C10.936 10.237 10.9142 10.1009 10.86 9.97646C10.8057 9.85205 10.7208 9.74343 10.6131 9.66075C10.4063 9.52699 9.99271 9.46011 9.37227 9.46011ZM9.71899 14.8956C10.3029 14.8956 10.7226 14.8226 10.9599 14.6767C11.0881 14.6012 11.1923 14.4908 11.2601 14.3584C11.328 14.226 11.3567 14.077 11.3431 13.9289C11.3431 13.5458 11.2336 13.2722 11.0146 13.1263C10.7956 12.9804 10.3759 12.9074 9.77373 12.9074H8.86132V14.8956H9.71899ZM16.3066 16.5372C16.9415 16.5372 17.4562 16.0227 17.4562 15.3881C17.4562 14.7534 16.9415 14.239 16.3066 14.239C15.6717 14.239 15.1569 14.7534 15.1569 15.3881C15.1569 16.0227 15.6717 16.5372 16.3066 16.5372ZM17.3102 7.45373H15.3029V13.5148H17.3102V7.45373Z" fill="black"/>
</svg>
