<svg width="24" height="24" viewBox="0 0 24 24" fill="none" xmlns="http://www.w3.org/2000/svg">
<path d="M15.4648 11.0664L9.83594 5.75391C9.56641 5.49883 9.16406 5.42852 8.82031 5.57617C8.47656 5.72656 8.25391 6.0625 8.25391 6.4375V9.25H3.25078C2.55977 9.25 2 9.80859 2 10.5V13C2 13.6906 2.55977 14.25 3.25078 14.25H8.25469V17.0625C8.25469 17.4366 8.47762 17.7754 8.82148 17.9238C9.16535 18.0715 9.56484 18.0013 9.83711 17.7444L15.466 12.4319C15.8398 12.0781 15.8398 11.4219 15.4648 11.0664ZM18.25 3H15.75C15.0598 3 14.5 3.55977 14.5 4.25C14.5 4.94023 15.0598 5.5 15.75 5.5H18.25C18.9402 5.5 19.5 6.05977 19.5 6.75V16.75C19.5 17.4402 18.9402 18 18.25 18H15.75C15.0598 18 14.5 18.5598 14.5 19.25C14.5 19.9402 15.0598 20.5 15.75 20.5H18.25C20.3211 20.5 22 18.8211 22 16.75V6.75C22 4.67891 20.3203 3 18.25 3Z" fill="black"/>
</svg>
