<svg width="24" height="24" viewBox="0 0 24 24" fill="none" xmlns="http://www.w3.org/2000/svg">
<path d="M12 2C6.47656 2 2 6.47656 2 12C2 17.5234 6.47656 22 12 22C17.5234 22 22 17.5234 22 12C22 6.47656 17.5234 2 12 2ZM12 7C12.6902 7 13.25 7.55977 13.25 8.25C13.25 8.94023 12.6902 9.5 12 9.5C11.3098 9.5 10.75 8.94141 10.75 8.25C10.75 7.55859 11.3086 7 12 7ZM13.5625 17H10.4375C9.92188 17 9.5 16.582 9.5 16.0625C9.5 15.543 9.91992 15.125 10.4375 15.125H11.0625V12.625H10.75C10.2324 12.625 9.8125 12.2051 9.8125 11.6875C9.8125 11.1699 10.2344 10.75 10.75 10.75H12C12.5176 10.75 12.9375 11.1699 12.9375 11.6875V15.125H13.5625C14.0801 15.125 14.5 15.5449 14.5 16.0625C14.5 16.5801 14.082 17 13.5625 17Z" fill="black"/>
</svg>
