<svg width="24" height="24" viewBox="0 0 24 24" fill="none" xmlns="http://www.w3.org/2000/svg">
<path fill-rule="evenodd" clip-rule="evenodd" d="M13.6057 12.6063C13.7731 12.4391 13.8568 12.2197 13.8568 12.0004C13.8568 11.7808 13.7738 11.5611 13.6064 11.3937L8.46377 6.2511C8.12897 5.9163 7.58658 5.9163 7.25177 6.2511C6.91697 6.58591 6.91697 7.1283 7.25177 7.4631L11.7891 12.0004L7.2511 16.5369C6.9163 16.8717 6.9163 17.4141 7.2511 17.7489C7.58591 18.0837 8.1283 18.0837 8.4631 17.7489L13.6057 12.6063ZM16 6.9L16 17.1C16 17.5978 16.4027 18 16.9003 18C17.3978 18 17.8 17.5975 17.8 17.1L17.8 6.9C17.8 6.40247 17.3978 6 16.9003 6C16.4027 6 16 6.40247 16 6.9Z" fill="black"/>
</svg>
