<svg width="24" height="24" viewBox="0 0 24 24" fill="none" xmlns="http://www.w3.org/2000/svg">
<path d="M14.1473 9.6875V12.8616C14.1473 12.942 14.0848 13.0045 14.0045 13.0045H13.4955C13.4464 13.0045 13.4018 12.9777 13.3795 12.9464L11.9241 10.9821V12.8661C11.9241 12.9464 11.8616 13.0089 11.7813 13.0089H11.2723C11.192 13.0089 11.1295 12.9464 11.1295 12.8661V9.69197C11.1295 9.61161 11.192 9.54911 11.2723 9.54911H11.7768C11.8214 9.54911 11.8705 9.57143 11.8929 9.61161L13.3482 11.5759V9.69197C13.3482 9.61161 13.4107 9.54911 13.4911 9.54911H14C14.0804 9.54465 14.1473 9.61161 14.1473 9.6875V9.6875ZM10.4866 9.54465H9.97768C9.89732 9.54465 9.83482 9.60714 9.83482 9.6875V12.8616C9.83482 12.942 9.89732 13.0045 9.97768 13.0045H10.4866C10.567 13.0045 10.6295 12.942 10.6295 12.8616V9.6875C10.6295 9.61161 10.567 9.54465 10.4866 9.54465V9.54465ZM9.25893 12.2054H7.87054V9.6875C7.87054 9.60714 7.80804 9.54465 7.72768 9.54465H7.21875C7.1384 9.54465 7.0759 9.60714 7.0759 9.6875V12.8616C7.0759 12.9018 7.08929 12.933 7.11608 12.9598C7.14286 12.9821 7.17411 13 7.21429 13H9.25447C9.33482 13 9.39732 12.9375 9.39732 12.8571V12.3482C9.39732 12.2723 9.33482 12.2054 9.25893 12.2054V12.2054ZM16.8259 9.54465H14.7857C14.7098 9.54465 14.6429 9.60714 14.6429 9.6875V12.8616C14.6429 12.9375 14.7054 13.0045 14.7857 13.0045H16.8259C16.9062 13.0045 16.9687 12.942 16.9687 12.8616V12.3527C16.9687 12.2723 16.9062 12.2098 16.8259 12.2098H15.4375V11.6741H16.8259C16.9062 11.6741 16.9687 11.6116 16.9687 11.5313V11.0179C16.9687 10.9375 16.9062 10.875 16.8259 10.875H15.4375V10.3393H16.8259C16.9062 10.3393 16.9687 10.2768 16.9687 10.1964V9.6875C16.9643 9.61161 16.9018 9.54465 16.8259 9.54465V9.54465ZM22 5.64733V18.3839C21.9955 20.3839 20.3571 22.0045 18.3527 22H5.61608C3.61608 21.9955 1.99554 20.3527 2.00001 18.3527V5.61608C2.00447 3.61608 3.64733 1.99554 5.64733 2.00001H18.3839C20.3839 2.00447 22.0045 3.64286 22 5.64733ZM19.25 11.1205C19.25 7.86161 15.9821 5.20983 11.9687 5.20983C7.95536 5.20983 4.68751 7.86161 4.68751 11.1205C4.68751 14.0402 7.27679 16.4866 10.7768 16.9509C11.6295 17.1339 11.5313 17.4464 11.3393 18.5937C11.308 18.7768 11.192 19.3125 11.9687 18.9866C12.7455 18.6607 16.1607 16.5179 17.692 14.7589C18.7455 13.5982 19.25 12.4241 19.25 11.1205Z" fill="black"/>
</svg>
