<svg width="24" height="24" viewBox="0 0 24 24" fill="none" xmlns="http://www.w3.org/2000/svg">
<path d="M20.5887 18.5989L16.3805 14.3907C17.3374 12.97 17.8096 11.1949 17.5568 9.30353C17.1258 6.08637 14.4891 3.46827 11.2687 3.06056C6.48079 2.45471 2.45468 6.48082 3.06057 11.2688C3.46838 14.4905 6.08683 17.1293 9.30434 17.5582C11.1958 17.811 12.9712 17.339 14.3915 16.3819L18.5997 20.5901C19.1488 21.1393 20.0393 21.1393 20.5885 20.5901C21.1371 20.0403 21.1371 19.1473 20.5887 18.5989ZM5.78083 10.3125C5.78083 7.83118 7.79951 5.8125 10.2808 5.8125C12.7622 5.8125 14.7809 7.83118 14.7809 10.3125C14.7809 12.7939 12.7622 14.8125 10.2808 14.8125C7.79951 14.8125 5.78083 12.7946 5.78083 10.3125Z" fill="black"/>
</svg>
