<svg width="24" height="24" viewBox="0 0 24 24" fill="none" xmlns="http://www.w3.org/2000/svg">
<path d="M20.75 9.22266V3.25C20.75 2.9082 20.4778 2 19.5 2C19.2217 2 18.9457 2.09277 18.7199 2.27465L15.3984 4.93203C13.7305 6.26562 11.6367 7 9.5 7H4.5C3.11953 7 2 8.12109 2 9.5V13.25C2 14.6305 3.11953 15.75 4.5 15.75H4.59883C4.17852 18.7891 5.94805 21.3477 6.03672 21.4727C6.27344 21.8047 6.62891 22 7 22H9.5C10.0055 22 10.4617 21.6454 10.6547 21.1C10.8488 20.5547 10.7414 19.9281 10.3837 19.5105C10.3672 19.4922 8.80859 17.5703 9.23047 15.75H9.5C11.6352 15.75 13.7305 16.4848 15.3633 17.818L18.7188 20.4414C18.9063 20.625 19.2578 20.75 19.5 20.75C20.473 20.75 20.75 19.8602 20.75 19.5V13.5273C21.4961 13.0938 22 12.2969 22 11.375C22 10.4531 21.4961 9.62109 20.75 9.22266ZM18.25 16.8984L16.9586 15.8656C14.8477 14.1797 12.1992 13.25 9.5 13.25V9.5C12.2004 9.5 14.8477 8.57109 16.957 6.88398L18.25 5.85117V16.8984Z" fill="black"/>
</svg>
