<svg width="24" height="24" viewBox="0 0 24 24" fill="none" xmlns="http://www.w3.org/2000/svg">
<path d="M19.7143 10.4286H4.24955C3.57576 10.4286 3 11.0031 3 11.7143C3 12.4254 3.57576 13 4.24955 13H19.6781C20.4254 13 21 12.4254 21 11.7143C21 11.0031 20.4254 10.4286 19.7143 10.4286ZM19.7143 16.8571H4.24955C3.57576 16.8571 3 17.4317 3 18.1067C3 18.7817 3.57576 19.4286 4.24955 19.4286H19.6781C20.4254 19.4286 21 18.854 21 18.1429C21 17.4317 20.4254 16.8571 19.7143 16.8571ZM19.7143 4H4.24955C3.57576 4 3 4.57576 3 5.24955C3 5.92335 3.57576 6.57143 4.24955 6.57143H19.6781C20.4254 6.57143 21 5.99688 21 5.28571C21 4.57455 20.4254 4 19.7143 4Z" fill="black"/>
</svg>
