<svg width="24" height="24" viewBox="0 0 24 24" fill="none" xmlns="http://www.w3.org/2000/svg">
<path d="M5.75 20.5H8.25C8.94141 20.5 9.5 19.9414 9.5 19.25C9.5 18.5586 8.94141 18 8.25 18H5.75C5.05977 18 4.5 17.4402 4.5 16.75V6.75C4.5 6.05977 5.05977 5.5 5.75 5.5H8.25C8.94141 5.5 9.5 4.94023 9.5 4.25C9.5 3.55977 8.94141 3 8.25 3H5.75C3.67891 3 2 4.67891 2 6.75V16.75C2 18.8203 3.67891 20.5 5.75 20.5ZM21.7187 11.0664L16.0898 5.75391C15.8174 5.49695 15.418 5.42676 15.0742 5.57445C14.7304 5.72277 14.5074 6.06156 14.5074 6.43578L14.5038 9.24828L9.50384 9.24824C8.81282 9.24824 8.25305 9.80801 8.25305 10.4982V12.9982C8.25305 13.6885 8.81321 14.2482 9.50384 14.2482L14.5038 14.2483L14.5074 17.0256C14.5074 17.3998 14.7304 17.7385 15.0742 17.887C15.4181 18.0346 15.8176 17.9645 16.0898 17.7075L21.7187 12.395C22.0937 12.0781 22.0937 11.4219 21.7187 11.0664Z" fill="black"/>
</svg>
