<svg width="24" height="24" viewBox="0 0 24 24" fill="none" xmlns="http://www.w3.org/2000/svg">
<path d="M17.7143 15.5712V17.8569C17.7143 18.488 17.2025 18.9998 16.5714 18.9998H7.42857C6.7975 18.9998 6.28571 18.488 6.28571 17.8569V15.5712C6.28571 14.9401 5.77393 14.4283 5.14286 14.4283C4.51179 14.4283 4 14.9401 4 15.5712V17.8569C4 19.7505 5.535 21.2855 7.42857 21.2855H16.5714C18.465 21.2855 20 19.7505 20 17.8569V15.5712C20 14.9401 19.4882 14.4283 18.8571 14.4283C18.2261 14.4283 17.7143 14.939 17.7143 15.5712ZM11.1929 3.33458L6.62143 7.906C6.17464 8.35279 6.17536 9.07601 6.62143 9.52208C7.06786 9.96851 7.79107 9.96851 8.2375 9.52208L10.8571 6.90333V14.4283C10.8571 15.0601 11.3682 15.5712 12 15.5712C12.6318 15.5712 13.1429 15.0601 13.1429 14.4283V6.90333L15.7636 9.52404C16.21 9.97047 16.9332 9.97047 17.3796 9.52404C17.8261 9.07761 17.8261 8.3544 17.3796 7.90797L12.8082 3.33654C12.3607 2.88815 11.6393 2.88815 11.1929 3.33458Z" fill="black"/>
</svg>
