<svg width="24" height="24" viewBox="0 0 24 24" fill="none" xmlns="http://www.w3.org/2000/svg">
<path d="M8.7 11.8C11.1303 11.8 13.1 9.82997 13.1 7.4C13.1 4.97003 11.1303 3 8.7 3C6.26969 3 4.3 4.97003 4.3 7.4C4.3 9.82997 6.26969 11.8 8.7 11.8ZM10.4428 13.45H6.95719C3.66647 13.45 1 16.1175 1 19.4072C1 20.0672 1.5335 20.6 2.19144 20.6H15.2072C15.8672 20.6 16.4 20.0672 16.4 19.4072C16.4 16.1175 13.7325 13.45 10.4428 13.45ZM17.4691 14H14.9305C16.51 15.2959 17.5 17.2347 17.5 19.4072C17.5 19.8472 17.3694 20.2528 17.1563 20.6H21.9C22.5084 20.6 23 20.105 23 19.4691C23 16.4613 20.5388 14 17.4691 14ZM15.85 11.8C17.9778 11.8 19.7 10.0778 19.7 7.95C19.7 5.82219 17.9778 4.1 15.85 4.1C14.9868 4.1 14.1986 4.39408 13.5565 4.87378C13.9525 5.63416 14.2 6.48563 14.2 7.4C14.2 8.621 13.7899 9.74231 13.1141 10.6557C13.8116 11.36 14.7775 11.8 15.85 11.8Z" fill="black"/>
</svg>
