<svg width="24" height="24" viewBox="0 0 24 24" fill="none" xmlns="http://www.w3.org/2000/svg">
<path d="M8.7 11.8C11.1303 11.8 13.1 9.82997 13.1 7.4C13.1 4.97003 11.1303 3 8.7 3C6.26969 3 4.3 4.97003 4.3 7.4C4.3 9.82997 6.26969 11.8 8.7 11.8ZM10.4428 13.45H6.95719C3.66784 13.45 1 16.1175 1 19.4072C1 20.0672 1.5335 20.6 2.19144 20.6H15.2092C15.8672 20.6 16.4 20.0672 16.4 19.4072C16.4 16.1175 13.7325 13.45 10.4428 13.45ZM22.175 9.875H20.525V8.225C20.525 7.77125 20.1572 7.4 19.7 7.4C19.2428 7.4 18.875 7.76953 18.875 8.225V9.875H17.225C16.7713 9.875 16.4 10.2463 16.4 10.7C16.4 11.1538 16.7695 11.525 17.225 11.525H18.875V13.175C18.875 13.6322 19.2463 14 19.7 14C20.1538 14 20.525 13.6305 20.525 13.175V11.525H22.175C22.6322 11.525 23 11.1572 23 10.7C23 10.2428 22.6322 9.875 22.175 9.875Z" fill="black"/>
</svg>
