<svg width="24" height="24" viewBox="0 0 24 24" fill="none" xmlns="http://www.w3.org/2000/svg">
<path d="M20.9736 16.607L20.1561 20.151C20.0413 20.6521 19.6009 21.0026 19.0852 21.0026C10.2147 21.0019 3 13.7872 3 4.9164C3 4.40096 3.35051 3.96006 3.85156 3.84579L7.39565 3.02833C7.91179 2.90872 8.43919 3.17664 8.65366 3.66543L10.2893 7.48024C10.4805 7.92958 10.3515 8.45311 9.97355 8.76181L8.08056 10.2818C9.27528 12.7155 11.2541 14.6943 13.6885 15.8897L15.2383 13.9981C15.5438 13.6191 16.0713 13.488 16.5206 13.6826L20.3354 15.3178C20.7943 15.5592 21.0931 16.0936 20.9736 16.607Z" fill="black"/>
</svg>
