<svg width="24" height="24" viewBox="0 0 24 24" fill="none" xmlns="http://www.w3.org/2000/svg">
<path fill-rule="evenodd" clip-rule="evenodd" d="M15.9344 4.62295H19.377V8.10246C19.377 8.78975 19.9643 9.37705 20.6885 9.37705C21.4127 9.37705 22 8.78975 22 8.10246V3.31148C22 2.58729 21.4127 2 20.6885 2H15.9344C15.209 2 14.623 2.58607 14.623 3.31147C14.623 4.03688 15.209 4.62295 15.9344 4.62295ZM10.1265 5.44262H6.37939C5.86212 5.44262 5.44262 5.86212 5.44262 6.37939V10.1265C5.44262 10.6437 5.86212 11.0632 6.37939 11.0632H10.1265C10.6437 11.0632 11.0632 10.6437 11.0632 10.1265V6.37939C11.0632 5.86212 10.6446 5.44262 10.1265 5.44262ZM9.1897 9.1897H7.31616V7.31616H9.1897V9.1897ZM10.1265 12.9368H6.37939C5.86212 12.9368 5.44262 13.3563 5.44262 13.8735V17.6206C5.44262 18.1379 5.86212 18.5574 6.37939 18.5574H10.1265C10.6437 18.5574 11.0632 18.1379 11.0632 17.6206V13.8735C11.0632 13.3554 10.6446 12.9368 10.1265 12.9368ZM9.1897 16.6838H7.31616V14.8103H9.1897V16.6838ZM17.6206 5.44262H13.8735C13.3563 5.44262 12.9368 5.86212 12.9368 6.37939V10.1265C12.9368 10.6437 13.3563 11.0632 13.8735 11.0632H17.6206C18.1379 11.0632 18.5574 10.6437 18.5574 10.1265V6.37939C18.5574 5.86212 18.1388 5.44262 17.6206 5.44262ZM16.6838 9.1897H14.8103V7.31616H16.6838V9.1897ZM15.7471 18.5574H16.6838V17.6206H15.7471V18.5574ZM17.6206 13.8735H15.7471V12.9368H12.9368V18.5574H14.8103V15.7471H15.7471V16.6838H18.5574V12.9368H17.6206V13.8735ZM17.6206 18.5574H18.5574V17.6206H17.6206V18.5574ZM8.06557 19.377H4.62295V15.8975C4.62295 15.2102 4.03566 14.623 3.31148 14.623C2.58729 14.623 2 15.2102 2 15.8975V20.6885C2 21.4127 2.58729 22 3.31148 22H8.06557C8.79098 22 9.37705 21.4139 9.37705 20.6885C9.37705 19.9631 8.79098 19.377 8.06557 19.377ZM19.377 19.377V15.9344C19.377 15.209 19.9631 14.623 20.6885 14.623C21.4139 14.623 22 15.209 22 15.9344V20.6885C22 21.4127 21.4127 22 20.6885 22H15.8975C15.2102 22 14.623 21.4127 14.623 20.6885C14.623 19.9643 15.2102 19.377 15.8975 19.377H19.377ZM4.62295 4.62295V8.06557C4.62295 8.79098 4.03688 9.37705 3.31148 9.37705C2.58607 9.37705 2 8.79098 2 8.06557V3.31148C2 2.58729 2.58729 2 3.31148 2H8.10246C8.78975 2 9.37705 2.58729 9.37705 3.31148C9.37705 4.03566 8.78975 4.62295 8.10246 4.62295H4.62295Z" fill="black"/>
</svg>
