<svg width="24" height="24" viewBox="0 0 24 24" fill="none" xmlns="http://www.w3.org/2000/svg">
<path d="M12 2C6.47656 2 2 6.47656 2 12C2 17.5234 6.47656 22 12 22C17.5234 22 22 17.5234 22 12C22 6.47656 17.5234 2 12 2ZM12 17.625C11.2969 17.625 10.75 17.0781 10.75 16.375C10.75 15.6719 11.2617 15.125 12 15.125C12.668 15.125 13.25 15.6719 13.25 16.375C13.25 17.0781 12.668 17.625 12 17.625ZM14.6992 12.0781L12.9375 13.1719V13.25C12.9375 13.7578 12.5078 14.1875 12 14.1875C11.4922 14.1875 11.0625 13.7578 11.0625 13.25V12.625C11.0625 12.3125 11.2188 12 11.5312 11.8047L13.7578 10.4766C14.0312 10.3203 14.1875 10.0469 14.1875 9.73438C14.1875 9.26562 13.7617 8.875 13.293 8.875H11.2969C10.793 8.875 10.4375 9.26562 10.4375 9.73438C10.4375 10.2422 10.0078 10.6719 9.5 10.6719C8.99219 10.6719 8.5625 10.2422 8.5625 9.73438C8.5625 8.21094 9.77344 7 11.2617 7H13.2578C14.8516 7 16.0625 8.21094 16.0625 9.73438C16.0625 10.6719 15.5547 11.5703 14.6992 12.0781Z" fill="black"/>
</svg>
