<svg width="24" height="24" viewBox="0 0 24 24" fill="none" xmlns="http://www.w3.org/2000/svg">
<path d="M7.87347 7.30105C7.11557 6.97895 6.79347 6.04105 7.2482 5.35895C8.16715 3.99474 9.70189 3 11.7293 3C13.9556 3 15.4808 4.01368 16.2577 5.28316C16.9208 6.37263 17.3093 8.40947 16.2861 9.92526C15.1493 11.6021 14.0598 12.1137 13.4724 13.1937C13.3303 13.4495 13.245 13.6579 13.1882 14.0842C13.1029 14.7758 12.5345 15.3158 11.8335 15.3158C11.0093 15.3158 10.3366 14.6053 10.4314 13.7811C10.4882 13.2979 10.6019 12.7958 10.8672 12.3221C11.5966 11.0053 12.9987 10.2284 13.8135 9.06316C14.6756 7.84105 14.1924 5.55789 11.7482 5.55789C10.6398 5.55789 9.91978 6.13579 9.47452 6.82737C9.14294 7.36737 8.45136 7.53789 7.87347 7.30105ZM13.6335 19.1053C13.6335 20.1474 12.7808 21 11.7387 21C10.6966 21 9.84399 20.1474 9.84399 19.1053C9.84399 18.0632 10.6966 17.2105 11.7387 17.2105C12.7808 17.2105 13.6335 18.0632 13.6335 19.1053Z" fill="black"/>
</svg>
