<svg width="24" height="24" viewBox="0 0 24 24" fill="none" xmlns="http://www.w3.org/2000/svg">
<path d="M6.11719 9.13281C6.60547 9.6207 7.39687 9.62109 7.88477 9.13285L10.75 6.26953V15.75C10.75 16.4402 11.3098 17 12 17C12.6902 17 13.25 16.4402 13.25 15.75V6.26953L16.1164 9.13594C16.6043 9.62383 17.3957 9.62383 17.884 9.1359C18.3719 8.64801 18.3719 7.8566 17.884 7.36832L12.884 2.36832C12.6406 2.12207 12.3203 2 12 2C11.6797 2 11.3594 2.12207 11.1172 2.36621L6.11719 7.36719C5.62813 7.85547 5.62813 8.64453 6.11719 9.13281ZM20.75 15.75H14.5C14.5 17.1309 13.3809 18.25 12 18.25C10.6191 18.25 9.5 17.1309 9.5 15.75H3.25C2.55977 15.75 2 16.3098 2 17V20.75C2 21.4402 2.55977 22 3.25 22H20.75C21.4402 22 22 21.4402 22 20.75V17C22 16.3086 21.4414 15.75 20.75 15.75ZM18.875 19.8125C18.3594 19.8125 17.9375 19.3906 17.9375 18.875C17.9375 18.3594 18.3594 17.9375 18.875 17.9375C19.3906 17.9375 19.8125 18.3594 19.8125 18.875C19.8125 19.3906 19.3906 19.8125 18.875 19.8125Z" fill="black"/>
</svg>
