<svg viewBox="0 0 1075 650" xmlns="http://www.w3.org/2000/svg"><rect fill="#fff" height="626" rx="68.26" width="1051" x="12" y="12"/><path d="m994.74 24a56.51 56.51 0 0 1 56.26 56.26v489.48a56.51 56.51 0 0 1 -56.26 56.26h-914.48a56.51 56.51 0 0 1 -56.26-56.26v-489.48a56.51 56.51 0 0 1 56.26-56.26zm0-24h-914.48a80.5 80.5 0 0 0 -80.26 80.26v489.48a80.5 80.5 0 0 0 80.26 80.26h914.48a80.5 80.5 0 0 0 80.26-80.26v-489.48a80.5 80.5 0 0 0 -80.26-80.26z" fill="#1b458e"/><path d="m607.58 87.62c68.1 0 115.06 58.08 115.06 125.15 0 67.33-49.25 124.44-115.08 124.53h-162.51c-64.1 0-125.6-57.2-125.71-124.61.11-65.8 61.66-125.07 125.66-125.07z" fill="#1b458e"/><path d="m607.58 87.62c68.1 0 115.06 58.08 115.06 125.15 0 67.33-49.25 124.44-115.08 124.53h-162.51c-64.1 0-125.6-57.2-125.71-124.61.11-65.8 61.66-125.07 125.66-125.07z" fill="none"/><path d="m566.45 212.52c0 62.77-59.69 121.27-121.44 121.25-62.79-.23-122-58.74-122-121 0-61.58 59.23-121.86 122-121.91 61.75 0 121.46 58.64 121.44 121.66" fill="#eee"/><path d="m566.45 212.52c0 62.77-59.69 121.27-121.44 121.25-62.79-.23-122-58.74-122-121 0-61.58 59.23-121.86 122-121.91 61.75.05 121.46 58.64 121.44 121.66z" fill="none"/><path d="m519.23 212.44c0 34.85-25 65.63-50.23 70.64v-141.48c25.26 6.81 50.27 35.41 50.23 70.84" fill="#1b458e"/><path d="m519.23 212.44c0 34.85-25 65.63-50.23 70.64v-141.48c25.26 6.81 50.27 35.4 50.23 70.84z" fill="none"/><path d="m370.38 212.37c0-34.85 25-65.63 50.23-70.64v141.51c-25.24-6.83-50.25-35.44-50.23-70.87" fill="#1b458e"/><path d="m370.38 212.37c0-34.85 25-65.63 50.23-70.64v141.51c-25.24-6.83-50.25-35.44-50.23-70.87z" fill="none"/><path d="m214.32 467.29c9.52-.47 10.6-6.51 11.54-9.82l16.14-57.83a16.77 16.77 0 0 0 .83-4.37c0-3.42-2.5-5.43-11.29-5.43l.58-2h36.42c17.35 0 35.43 10.39 35.43 33.41 0 24.45-22.36 48.06-52.57 48.06h-37.7zm23.68-9.68a9.87 9.87 0 0 0 -.49 2.95c0 3.67 2.63 4.84 8 4.84h4.75c25.8 0 40.09-22.08 40.09-46 0-17.46-8.1-27.62-26.28-27.62-7.38 0-8.46 2.37-10.71 10.62z"/><path d="m330.84 456.13c-4.9 6.22-11.54 14.38-19.88 14.38-4.3 0-5.77-3.65-5.77-6.45a21.38 21.38 0 0 1 .73-5.13l9.71-34.36a13.36 13.36 0 0 0 .85-3.42c0-2.06-1.47-3.29-8.1-3.29l.61-2.06c10.56-1 17.69-3.18 18.8-3.18.86 0 1.33.24 1.33.85a18.39 18.39 0 0 1 -.61 2.33l-12.16 40.69a30.6 30.6 0 0 0 -.72 4.39c0 1.83.6 2.93 2.44 2.93 3.06 0 7.87-5.49 10.93-9.38zm2.72-60.13a6.59 6.59 0 0 1 -6.41 6.45 6.37 6.37 0 0 1 -6.24-6.34 6.44 6.44 0 0 1 6.37-6.2 6.24 6.24 0 0 1 6.28 6.09"/><path d="m341.28 425.07a10.66 10.66 0 0 0 .63-3.18c0-3.9-3.09-4-8.25-4l.62-2.06a105.13 105.13 0 0 0 13-1.95c3.31-.72 5.41-1.23 5.88-1.23.87 0 1.36.24 1.36.85s-.85 2.57-1.23 3.91l-5.77 20.47.25.25a77.47 77.47 0 0 1 13.4-16.13c5.9-5.13 12.52-9.4 17.93-9.4s7.49 2.32 7.49 7.56c0 3.16-3.06 13.78-3.93 16.82l-5.41 19.49a15.07 15.07 0 0 0 -.72 4.39c0 1.34.6 2.93 2.08 2.93 2.95 0 7.11-6 9.95-10.48l2 1.83c-4.32 6.57-10.2 15.35-18.56 15.35-4.28 0-5.89-3.65-5.89-6.45a21.74 21.74 0 0 1 .86-5.13l6.5-23.76c.63-2.2 2.82-10.35 2.82-12.54a3.4 3.4 0 0 0 -3.31-3.3c-6.13 0-17.18 11.2-23.7 22.67-2.69 4.75-6.49 12.67-10.29 27.3h-10.74l13-44.23"/><path d="m433.72 456.87c-6.49 7.55-15.59 13.64-26 13.64-12.16 0-17.19-8.53-17.19-19.51 0-17.53 17.8-38.38 36-38.38 6.13 0 11.9 1.83 11.9 8.91 0 15-24.31 21.32-36.1 22.78a35.26 35.26 0 0 0 -.73 8.17c0 7.43 3.44 12.54 11.29 12.54 7.49 0 14-5.11 19.16-9.86zm-30.82-15.61c10.93-1.32 25.67-8.17 25.67-20.83 0-3.29-1.72-4.75-4.79-4.75-9.81 0-19.41 17.18-20.88 25.58"/><path d="m447.58 430.17a31.27 31.27 0 0 0 1.23-7.43c0-4.88-3.55-4.88-7.87-4.88l.63-2.06a143.3 143.3 0 0 0 17.43-2.8 12.08 12.08 0 0 1 1.61-.38c.61 0 .74.51.74 1.09a58.76 58.76 0 0 1 -1.48 6.72l-5.16 17.29h.24c4.68-8.28 14.49-25.1 22.48-25.1 2.82 0 4.18 2.32 4.18 4.88 0 4.63-2.1 8.64-5.79 8.64-2.33 0-4.29-2.44-5.75-4-11.18 10.48-18.18 27.55-22.12 42l-1.47 5.13h-9.69l10.8-39.13"/><path d="m514 430.91h-2.1c-.25-6.94-3.56-15.23-11.79-15.23-4.18 0-7.72 2.18-7.72 6.81s4.16 9.14 8.21 14.13 8.12 10.26 8.12 16.71c0 11.33-9.46 17.18-19.17 17.18-6.26 0-12.52-2.31-13.64-2.31a2.47 2.47 0 0 0 -2.19 2.31h-2.08l2.32-20h2.09c.73 7.79 3.33 16.93 12.88 16.93 6.89 0 9.95-4.26 9.95-9.5 0-5.61-2.21-8.28-7.74-15.24-3.91-5-8.59-10.24-8.59-16.58 0-8.4 8.23-13.52 16.08-13.52a26.65 26.65 0 0 1 7.38 1.23 20.88 20.88 0 0 0 5 1.32 3.24 3.24 0 0 0 3.2-2 .68.68 0 0 1 .36-.51h2.08z"/><path d="m612.53 410.5h-2v-2.84c0-11-4.88-17.57-18.81-17.57-22.72 0-39.14 28.09-39.14 48.28 0 14.75 7.62 27.26 24.16 27.26 11.77 0 21.4-6.13 29.13-14.4l2.27 1.76c-9.29 11.1-20.69 17.95-35.45 17.95-19.86 0-33.79-13.09-33.79-32.93 0-27.74 25.94-51.82 53.54-51.82a37.7 37.7 0 0 1 11.65 1.81c3 .83 5.11 1.64 6.55 1.64 2.72 0 3.69-.56 4.75-2.81h2l-4.88 23.72"/><path d="m636 456.49c-4.41 5.37-11.16 14-18.9 14-4.05 0-5.9-2.31-5.9-6.34a26.48 26.48 0 0 1 1.36-8.4l15.72-56.92a50.17 50.17 0 0 0 1.59-8.16c0-2.44-.74-3.16-7.85-3.4l.36-2.08a80.14 80.14 0 0 0 13.51-1.82 29.75 29.75 0 0 1 5.54-1.23c1 0 1.32.6 1.32 1.47a25.77 25.77 0 0 1 -.85 3.3l-19 67.12a19.33 19.33 0 0 0 -1.23 6.35c0 2.56 1.1 3.41 2.71 3.41 2.59 0 8.23-7.08 9.7-9l2 1.7"/><path d="m683.21 456.49a22.7 22.7 0 0 0 -.74 4.39 2.64 2.64 0 0 0 2.58 2.93c3.06 0 7.6-5.49 10.68-9.38l1.84 1.7c-4.67 6.22-11.29 14.38-19.64 14.38-4.31 0-5.9-3.65-5.9-6.45a22.34 22.34 0 0 1 .87-5.13l5-17.18h-.24c-5.66 9.5-19.05 28.76-31.56 28.76-5.16 0-7.87-3.41-7.87-8.29a32.48 32.48 0 0 1 1.12-7.79l7.6-28.29a34.16 34.16 0 0 0 1.23-5c0-2.31-1.47-3.16-8.34-3.29l.6-2.06c10.81-1 17.92-3.18 19-3.18.87 0 1.34.24 1.34.85a44.46 44.46 0 0 1 -1.34 5l-9.71 36.19a32.1 32.1 0 0 0 -1.1 5.6 3.27 3.27 0 0 0 3.56 3.54c11 0 28-27.41 32.92-50h9.89l-11.79 42.64"/><path d="m714 394.83a12.64 12.64 0 0 0 .36-2.66c0-3.67-3.07-4-7.36-4.88l.36-2.08c5.9-.36 12.65-1.1 16.83-2.45a9.78 9.78 0 0 1 2-.6c.61 0 1.1.25 1.1 1.23 0 .6-.62 2.55-.74 3.27l-10.31 37.54h.12c5.41-7.31 11-11.58 20.39-11.58 10.91 0 16.82 7.92 16.82 18.16 0 20.47-19.9 39.73-40.39 39.73-7.63 0-16.35-2.2-16.35-6.83a21.14 21.14 0 0 1 .87-3.88zm-7.6 66.67a13.69 13.69 0 0 0 -.36 2.06c0 3.18 7.86 3.9 9.33 3.9 15.23 0 27.13-20.35 27.13-35 0-7.41-2.69-14.38-11.16-14.38-7.49 0-16.21 8.42-18.67 18.3l-6.27 25.1"/><path d="m215.34 563.83c9.86-.47 10.47-4.14 12-9.8l16.17-57.85a14.64 14.64 0 0 0 .82-4.26c0-3.18-2.12-5.31-10.45-5.54l.59-2h33.18l-.58 2c-8.57.59-10.24 5-11.54 9.8l-16.18 57.82a20.37 20.37 0 0 0 -.81 4.48c0 3.07 2.36 5.32 11.29 5.32l-.6 2h-34.49l.6-2"/><path d="m266.14 521.61a10.57 10.57 0 0 0 .6-3.16c0-3.92-3.06-4-8.22-4l.62-2.08a103.26 103.26 0 0 0 13-2c3.31-.74 5.39-1.21 5.88-1.21.85 0 1.36.24 1.36.85s-.87 2.55-1.23 3.89l-5.77 20.47.25.25a78.12 78.12 0 0 1 13.37-16.06c5.9-5.13 12.53-9.38 17.94-9.38s7.47 2.3 7.47 7.54c0 3.16-3.05 13.78-3.92 16.82l-5.39 19.46a15.45 15.45 0 0 0 -.73 4.41c0 1.32.62 2.91 2.1 2.91 2.95 0 7.13-6 9.93-10.48l2 1.83c-4.29 6.57-10.17 15.35-18.54 15.35-4.29 0-5.88-3.65-5.88-6.45a22.19 22.19 0 0 1 .85-5.13l6.51-23.76c.61-2.2 2.82-10.35 2.82-12.55a3.41 3.41 0 0 0 -3.31-3.29c-6.13 0-17.18 11.22-23.71 22.67-2.68 4.75-6.5 12.67-10.29 27.3h-10.73l13-44.23"/><path d="m340.43 554c-3.69 4.64-9.82 13-18.18 13-4.29 0-5.77-3.65-5.77-6.45a20.6 20.6 0 0 1 .76-5.13l10.55-41.05h-9l.49-2.08c9.33-1.71 16.46-8.29 20.75-16.58h2.57l-3.6 14.68h9.83l-1 4h-10.35l-10 38.61a29.65 29.65 0 0 0 -.61 4.27c0 1.35.5 3.05 2.46 3.05 3.07 0 6.76-4.88 9.33-8l1.72 1.7"/><path d="m385.12 553.41c-6.51 7.55-15.59 13.64-26 13.64-12.16 0-17.19-8.54-17.19-19.49 0-17.55 17.8-38.38 36-38.38 6.13 0 11.9 1.81 11.9 8.89 0 15-24.31 21.32-36.08 22.78a35.26 35.26 0 0 0 -.75 8.17c0 7.43 3.44 12.56 11.29 12.56 7.49 0 14-5.13 19.16-9.88zm-30.84-15.61c10.93-1.34 25.72-8.15 25.72-20.8 0-3.29-1.72-4.75-4.78-4.75-9.82 0-19.4 17.18-20.89 25.58"/><path d="m399.7 526.71a30.3 30.3 0 0 0 1.23-7.43c0-4.86-3.55-4.86-7.85-4.86l.61-2.08a144.25 144.25 0 0 0 17.44-2.8 13.65 13.65 0 0 1 1.59-.36c.62 0 .74.47.74 1.09a59 59 0 0 1 -1.46 6.73l-5.16 17.31h.26c4.65-8.29 14.49-25.1 22.46-25.1 2.83 0 4.18 2.3 4.18 4.86 0 4.63-2.08 8.66-5.77 8.66-2.33 0-4.3-2.44-5.77-4-11.18 10.48-18.18 27.55-22.12 42l-1.46 5.13h-9.7l10.8-39.13"/><path d="m442.29 521.61a10 10 0 0 0 .62-3.16c0-3.92-3.06-4-8.23-4l.63-2.08a103.05 103.05 0 0 0 13-2c3.31-.74 5.39-1.21 5.89-1.21.87 0 1.34.24 1.34.85s-.85 2.55-1.23 3.89l-5.75 20.47.24.25a77.87 77.87 0 0 1 13.38-16.08c5.9-5.13 12.52-9.38 17.93-9.38s7.49 2.3 7.49 7.54c0 3.16-3.08 13.78-3.93 16.82l-5.38 19.48a14.71 14.71 0 0 0 -.76 4.41c0 1.32.63 2.91 2.1 2.91 2.93 0 7.11-6 9.93-10.48l2 1.83c-4.29 6.57-10.2 15.35-18.54 15.35-4.29 0-5.88-3.65-5.88-6.45a22.19 22.19 0 0 1 .85-5.13l6.51-23.76c.62-2.2 2.82-10.35 2.82-12.55a3.41 3.41 0 0 0 -3.32-3.29c-6.12 0-17.19 11.22-23.68 22.67-2.71 4.75-6.51 12.67-10.33 27.3h-10.7l13-44.23"/><path d="m533.89 553.52a18.24 18.24 0 0 0 -.87 4.28c0 1 .51 2.55 1.72 2.55 3 0 7.25-6.34 8.72-8.53l1.86 1.45c-3.69 5.6-10 13.78-17.45 13.78-4 0-4.78-2.56-4.78-6 0-4.28 2.82-11.58 4.42-17.31h-.26c-5.17 9.38-13.62 23.27-26 23.27-7.74 0-10.43-6.21-10.43-12.91 0-16.21 15.59-45 34.76-45 4.9 0 7.6 1.94 9.44 6.31h.24l1.36-5.1h9.08zm-32.05-.6c0 4.14 1.34 7.43 5 7.43 5.91 0 11.92-5.37 17.81-17.18 4.54-9.14 7.24-19.26 7.24-23.29 0-4.61-2.95-7.66-6.51-7.66-14 0-23.57 29.25-23.57 40.7"/><path d="m572.44 554c-3.68 4.64-9.81 13-18.18 13-4.29 0-5.77-3.65-5.77-6.45a21.45 21.45 0 0 1 .74-5.13l10.56-41.05h-8.95l.49-2.08c9.33-1.71 16.44-8.29 20.74-16.58h2.59l-3.66 14.68h9.82l-1 4h-10.33l-9.93 38.61a27.15 27.15 0 0 0 -.62 4.27c0 1.35.49 3.05 2.46 3.05 3.06 0 6.75-4.88 9.32-8l1.72 1.7"/><path d="m604.21 552.67c-4.92 6.2-11.54 14.38-19.89 14.38-4.31 0-5.78-3.65-5.78-6.45a21.38 21.38 0 0 1 .73-5.13l9.73-34.36a13.45 13.45 0 0 0 .85-3.4c0-2.08-1.46-3.29-8.1-3.29l.61-2.08c10.57-1 17.69-3.16 18.8-3.16.85 0 1.35.24 1.35.85a21.53 21.53 0 0 1 -.63 2.31l-12.16 40.66a27.67 27.67 0 0 0 -.74 4.41c0 1.81.6 2.91 2.46 2.91 3.06 0 7.85-5.49 10.91-9.38zm4.61-60.16a6.58 6.58 0 0 1 -6.37 6.45 6.37 6.37 0 0 1 -6.26-6.34 6.44 6.44 0 0 1 6.37-6.2 6.23 6.23 0 0 1 6.26 6.09"/><path d="m662.1 528.3c0 17.31-19.41 38.75-38.08 38.75-12.28 0-20.49-7.44-20.49-19.73 0-18.3 19.14-38.14 37.81-38.14 11.54 0 20.76 7.19 20.76 19.12m-11.05-3.18c0-7.66-2.84-12.9-11.31-12.9-15.21 0-25.16 26.07-25.16 38.63 0 7.55 2.32 13.15 10.68 13.15 15.71 0 25.79-26.31 25.79-38.88"/><path d="m672.41 521.61a10.57 10.57 0 0 0 .6-3.16c0-3.92-3.06-4-8.23-4l.61-2.08a102.59 102.59 0 0 0 13-2c3.3-.74 5.4-1.21 5.89-1.21.87 0 1.34.24 1.34.85s-.85 2.55-1.21 3.89l-5.79 20.47.25.25a77.94 77.94 0 0 1 13.39-16.08c5.9-5.13 12.52-9.38 17.94-9.38s7.47 2.3 7.47 7.54c0 3.16-3.07 13.78-3.92 16.82l-5.38 19.48a14.85 14.85 0 0 0 -.74 4.41c0 1.32.63 2.91 2.08 2.91 3 0 7.14-6 10-10.48l2 1.83c-4.29 6.57-10.19 15.35-18.54 15.35-4.29 0-5.88-3.65-5.88-6.45a22.19 22.19 0 0 1 .85-5.13l6.51-23.76c.6-2.2 2.82-10.35 2.82-12.55a3.42 3.42 0 0 0 -3.31-3.29c-6.15 0-17.2 11.22-23.71 22.67-2.7 4.75-6.51 12.67-10.31 27.3h-10.77l13-44.23"/><path d="m763.37 553.52a17.83 17.83 0 0 0 -.85 4.28c0 1 .49 2.55 1.72 2.55 2.93 0 7.24-6.34 8.7-8.53l1.83 1.45c-3.67 5.6-9.93 13.78-17.42 13.78-4.05 0-4.79-2.56-4.79-6 0-4.28 2.82-11.58 4.43-17.31h-.24c-5.17 9.38-13.64 23.27-26 23.27-7.73 0-10.44-6.21-10.44-12.91 0-16.21 15.59-45 34.75-45 4.9 0 7.61 1.94 9.46 6.31h.23l1.36-5.1h9.08zm-32-.6c0 4.14 1.36 7.43 5 7.43 5.9 0 11.92-5.37 17.8-17.18 4.56-9.14 7.25-19.26 7.25-23.29 0-4.61-2.93-7.66-6.51-7.66-14 0-23.57 29.25-23.57 40.7"/><path d="m799.48 553c-4.43 5.37-11.18 14-18.92 14-4 0-5.88-2.31-5.88-6.34a26.23 26.23 0 0 1 1.34-8.4l15.72-56.91a50.45 50.45 0 0 0 1.59-8.17c0-2.44-.73-3.16-7.85-3.4l.36-2.09a77.29 77.29 0 0 0 13.51-1.81 30.09 30.09 0 0 1 5.54-1.23c1 0 1.35.6 1.35 1.47a28 28 0 0 1 -.87 3.3l-19 67.14a19.37 19.37 0 0 0 -1.23 6.33c0 2.56 1.12 3.41 2.71 3.41 2.59 0 8.23-7.08 9.7-9l2 1.7"/><path d="m818.21 485.49a9.41 9.41 0 0 1 2.55.27 2.69 2.69 0 0 1 1.88 2.61 2.73 2.73 0 0 1 -2.08 2.55c.64.34 1.13.61 1.36 2.18a10 10 0 0 0 .91 3.31h-2.65a8.29 8.29 0 0 1 -.57-2.39c-.3-2-.42-2.31-2.31-2.34h-.55v4.73h-2.3v-10.92zm-1.46 4.35h1.38c.86 0 2.2 0 2.2-1.34a1.17 1.17 0 0 0 -.68-1.12 4.91 4.91 0 0 0 -1.86-.13h-1zm1.52 11.22a9.88 9.88 0 1 1 10-9.82 9.82 9.82 0 0 1 -10 9.82m0-18.5a8.65 8.65 0 1 0 8.68 8.66 8.65 8.65 0 0 0 -8.68-8.66"/></svg>