<svg viewBox="0 0 1075 650" xmlns="http://www.w3.org/2000/svg" xmlns:xlink="http://www.w3.org/1999/xlink"><linearGradient id="a" gradientUnits="userSpaceOnUse" x1="243.48" x2="838.35" y1="621.19" y2="26.32"><stop offset="0" stop-color="#1a1e5a"/><stop offset="1" stop-color="#122d98"/></linearGradient><rect fill="url(#a)" height="650" rx="80.26" width="1075" y="2.17"/><path d="m551.55 279.54c-.47 36.8 32.79 57.33 57.85 69.54 25.74 12.53 34.39 20.56 34.29 31.76-.2 17.14-20.54 24.71-39.57 25-33.21.52-52.52-9-67.87-16.13l-12 56c15.41 7.1 43.92 13.29 73.5 13.56 69.41 0 114.83-34.27 115.08-87.4.27-67.43-93.27-71.16-92.63-101.3.22-9.14 8.94-18.89 28-21.37 9.46-1.25 35.57-2.21 65.17 11.42l11.62-54.16a177.1 177.1 0 0 0 -61.85-11.35c-65.34 0-111.3 34.73-111.67 84.45m285.16-79.78a30.13 30.13 0 0 0 -28.13 18.74l-99.08 236.75h69.37l13.8-38.15h84.77l8 38.15h61.14l-53.35-255.51h-56.44m9.7 69 20 96h-54.81zm-379-69-54.64 255.51h66.1l54.65-255.51h-66.08m-97.78 0-68.8 173.91-27.86-147.88c-3.26-16.5-16.16-26-30.48-26h-112.45l-1.58 7.42c23.09 5 49.33 13.09 65.22 21.73 9.73 5.29 12.5 9.9 15.7 22.46l52.71 203.9h69.88l107.07-255.54z" fill="#fff"/></svg>