<svg id="レイヤー_1" data-name="レイヤー 1" xmlns="http://www.w3.org/2000/svg" viewBox="0 0 176.76 110.72"><defs><style>.cls-1{fill:#fff;}</style></defs><title>surisuri</title><polygon points="163.82 103.83 135.37 16.3 155.19 2.07 153.7 0 0 110.7 176.76 110.72 176.76 103.83 163.82 103.83"/><path class="cls-1" d="M100.71,140.65c-8.52,0-15.45-9.68-15.45-21.59s6.93-21.59,15.45-21.59,15.45,9.68,15.45,21.59-6.93,21.59-15.45,21.59" transform="translate(-11.97 -40.76)"/><path class="cls-1" d="M137.52,132.13c-8.88,0-16.11-10.16-16.11-22.65s7.23-22.65,16.11-22.65S153.63,97,153.63,109.47s-7.23,22.65-16.11,22.65" transform="translate(-11.97 -40.76)"/><path d="M104,102.48c-3.41,0-6.17,3.81-6.17,8.51s2.76,8.51,6.17,8.51,6.17-3.81,6.17-8.51-2.76-8.51-6.17-8.51" transform="translate(-11.97 -40.76)"/><path d="M140.24,91c-3.55,0-6.43,4-6.43,8.83s2.88,8.82,6.43,8.82,6.44-4,6.44-8.82S143.79,91,140.24,91" transform="translate(-11.97 -40.76)"/></svg>