<svg width="24" height="24" viewBox="0 0 24 24" fill="none" xmlns="http://www.w3.org/2000/svg">
<path d="M10.0258 18.8077L4.19235 12.9742C3.96266 12.7482 3.84964 12.4492 3.84964 12.1503C3.84964 11.8513 3.96357 11.5531 4.19144 11.3256L10.0248 5.49217C10.4806 5.03643 11.2189 5.03643 11.6746 5.49217C12.1303 5.9479 12.1303 6.68619 11.6746 7.14193L7.83094 10.9836L19.0165 10.9836C19.6615 10.9836 20.1504 11.506 20.1504 12.1175C20.1504 12.7289 19.6615 13.317 19.0165 13.317L7.83094 13.317L11.6737 17.1597C12.1294 17.6155 12.1294 18.3537 11.6737 18.8095C11.218 19.2652 10.4815 19.2634 10.0258 18.8077Z" fill="black"/>
</svg>
