<svg width="24" height="24" viewBox="0 0 24 24" fill="none" xmlns="http://www.w3.org/2000/svg">
<path d="M13.9742 5.49308L19.8077 11.3265C20.0373 11.5525 20.1504 11.8515 20.1504 12.1505C20.1504 12.4494 20.0364 12.7477 19.8086 12.9752L13.9752 18.8086C13.5194 19.2643 12.7811 19.2643 12.3254 18.8086C11.8697 18.3528 11.8697 17.6145 12.3254 17.1588L16.1691 13.3171L4.9835 13.3171C4.33855 13.3171 3.84964 12.7947 3.84964 12.1833C3.84964 11.5719 4.33855 10.9838 4.9835 10.9838L16.1691 10.9838L12.3263 7.14102C11.8706 6.68528 11.8706 5.94699 12.3263 5.49126C12.782 5.03552 13.5185 5.03734 13.9742 5.49308Z" fill="black"/>
</svg>
