<svg width="24" height="24" viewBox="0 0 24 24" fill="none" xmlns="http://www.w3.org/2000/svg">
<path d="M5.34271 10.1761L11.1761 4.34271C11.4022 4.11302 11.7011 4 12.0001 4C12.2991 4 12.5973 4.11393 12.8248 4.3418L18.6582 10.1752C19.1139 10.6309 19.1139 11.3692 18.6582 11.825C18.2025 12.2807 17.4642 12.2807 17.0084 11.825L13.1668 7.9813L13.1668 19.1669C13.1668 19.8118 12.6443 20.3007 12.0329 20.3007C11.4215 20.3007 10.8334 19.8118 10.8334 19.1669L10.8334 7.9813L6.99065 11.8241C6.53492 12.2798 5.79663 12.2798 5.34089 11.8241C4.88516 11.3683 4.88698 10.6319 5.34271 10.1761Z" fill="black"/>
</svg>
