<svg width="24" height="24" viewBox="0 0 24 24" fill="none" xmlns="http://www.w3.org/2000/svg">
<path d="M20.3333 5H3.66667C2.74618 5 2 5.74618 2 6.66667V16.6667C2 17.5868 2.74618 18.3333 3.66667 18.3333H20.3333C21.2538 18.3333 22 17.5872 22 16.6667V6.66667C22 5.74618 21.2535 5 20.3333 5ZM3.66667 16.6667V14.4444C4.89514 14.4444 5.88889 15.4382 5.88889 16.6667H3.66667ZM3.66667 8.88889V6.66667H5.88889C5.88889 7.89583 4.89514 8.88889 3.66667 8.88889ZM12 15C10.466 15 9.22222 13.5076 9.22222 11.6667C9.22222 9.8257 10.466 8.33333 12 8.33333C13.534 8.33333 14.7778 9.8257 14.7778 11.6667C14.7778 13.5069 13.5347 15 12 15ZM20.3333 16.6667H18.1111C18.1111 15.4382 19.1049 14.4444 20.3333 14.4444V16.6667ZM20.3333 8.88889C19.1049 8.88889 18.1111 7.89514 18.1111 6.66667H20.3333V8.88889Z" fill="black"/>
</svg>
