<svg width="24" height="24" viewBox="0 0 24 24" fill="none" xmlns="http://www.w3.org/2000/svg">
<path d="M20.6 7.25714C20.6 7.57881 20.4772 7.90064 20.2317 8.14579L10.1746 18.2029C9.93 18.4496 9.60786 18.5714 9.28571 18.5714C8.96357 18.5714 8.64221 18.4487 8.39707 18.2031L3.3685 13.1746C3.12296 12.93 3 12.6079 3 12.2857C3 11.5676 3.58732 11.0286 4.25714 11.0286C4.57881 11.0286 4.90064 11.1513 5.14579 11.3969L9.28571 15.5386L18.455 6.36929C18.6986 6.12296 19.0207 6 19.3429 6C20.0146 6 20.6 6.53821 20.6 7.25714Z" fill="black"/>
</svg>
