<svg width="24" height="24" viewBox="0 0 24 24" fill="none" xmlns="http://www.w3.org/2000/svg">
<path fill-rule="evenodd" clip-rule="evenodd" d="M12.6057 12.6063C12.7731 12.4391 12.8568 12.2197 12.8568 12.0004C12.8568 11.7808 12.7738 11.5611 12.6064 11.3937L7.46377 6.2511C7.12897 5.9163 6.58658 5.9163 6.25177 6.2511C5.91697 6.58591 5.91697 7.1283 6.25177 7.4631L10.7891 12.0004L6.2511 16.5369C5.9163 16.8717 5.9163 17.4141 6.2511 17.7489C6.58591 18.0837 7.1283 18.0837 7.4631 17.7489L12.6057 12.6063ZM17.6057 12.6063C17.7731 12.4391 17.8568 12.2197 17.8568 12.0004C17.8568 11.7808 17.7738 11.5611 17.6064 11.3937L12.4638 6.2511C12.129 5.9163 11.5866 5.9163 11.2518 6.2511C10.917 6.58591 10.917 7.1283 11.2518 7.4631L15.7891 12.0004L11.2511 16.5369C10.9163 16.8717 10.9163 17.4141 11.2511 17.7489C11.5859 18.0837 12.1283 18.0837 12.4631 17.7489L17.6057 12.6063Z" fill="black"/>
</svg>
