<svg width="24" height="24" viewBox="0 0 24 24" fill="none" xmlns="http://www.w3.org/2000/svg">
<path d="M17 5.75V2H12.625C11.5895 2 10.75 2.83945 10.75 3.875V15.125C10.75 16.1605 11.5895 17 12.625 17H20.125C21.1605 17 22 16.1605 22 15.125V7H18.2852C17.5625 7 17 6.4375 17 5.75ZM18.25 2V5.75H22L18.25 2ZM9.5 15.75V7H3.875C2.83945 7 2 7.83945 2 8.875V20.125C2 21.1605 2.83945 22 3.875 22H11.375C12.4105 22 13.25 21.1605 13.25 20.125V18.25H12C10.6211 18.25 9.5 17.1289 9.5 15.75Z" fill="black"/>
</svg>
