<svg width="24" height="24" viewBox="0 0 24 24" fill="none" xmlns="http://www.w3.org/2000/svg">
<path d="M21.7767 18.0396L13.4444 3.82034C12.8065 2.72655 11.1966 2.72655 10.5544 3.82034L2.226 18.0396C1.58496 19.1295 2.38339 20.5006 3.66824 20.5006H20.3329C21.6126 20.5006 22.4134 19.1334 21.7767 18.0396ZM11.0615 8.31269C11.0615 7.79509 11.4814 7.37516 11.999 7.37516C12.5166 7.37516 12.9365 7.79705 12.9365 8.31269V13.3129C12.9365 13.8305 12.5166 14.2504 12.0342 14.2504C11.5517 14.2504 11.0615 13.8324 11.0615 13.3129V8.31269ZM11.999 18.0005C11.3209 18.0005 10.7708 17.4505 10.7708 16.7724C10.7708 16.0942 11.3205 15.5442 11.999 15.5442C12.6775 15.5442 13.2272 16.0942 13.2272 16.7724C13.2256 17.4497 12.6787 18.0005 11.999 18.0005Z" fill="black"/>
</svg>
