<svg width="24" height="24" viewBox="0 0 24 24" fill="none" xmlns="http://www.w3.org/2000/svg">
<path d="M17 14.5C16.3098 14.5 15.75 15.0598 15.75 15.75V19.5H4.5V8.25H8.25C8.94023 8.25 9.5 7.69063 9.5 7C9.5 6.30937 8.94023 5.75 8.25 5.75H4.5C3.11914 5.75 2 6.86914 2 8.25V19.5C2 20.8805 3.11914 22 4.5 22H15.75C17.1309 22 18.25 20.8805 18.25 19.5V15.75C18.25 15.0586 17.6914 14.5 17 14.5ZM21.0625 2H15.75C15.2445 2 14.7883 2.30457 14.5953 2.77148C14.4012 3.23906 14.5086 3.77617 14.8663 4.13398L16.4844 5.75L8.61719 13.6172C8.12891 14.1055 8.12891 14.8965 8.61719 15.3848C8.85937 15.6289 9.17969 15.75 9.5 15.75C9.82031 15.75 10.1398 15.6279 10.3836 15.3838L18.25 7.51953L19.8664 9.13594C20.2241 9.49301 20.7602 9.59844 21.2289 9.40695C21.6953 9.21094 22 8.75391 22 8.25V2.9375C22 2.41953 21.582 2 21.0625 2Z" fill="black"/>
</svg>
