<svg width="24" height="24" viewBox="0 0 24 24" fill="none" xmlns="http://www.w3.org/2000/svg">
<path d="M12 16C14.1091 16 15.8182 14.291 15.8182 12.1818V5.81818C15.8182 3.70903 14.1091 2 12 2C9.89085 2 8.18182 3.70903 8.18182 5.81818V12.1818C8.18182 14.2898 9.85625 16 12 16ZM18.0455 9.63636C17.5165 9.63636 17.0909 10.0619 17.0909 10.5551V12.1818C17.0909 15.0984 14.6262 17.4477 11.6699 17.2608C9.0417 17.095 6.90909 14.6123 6.90909 11.979V10.5551C6.90909 10.0619 6.48153 9.63636 5.95455 9.63636C5.42756 9.63636 5 10.0619 5 10.5551V11.8338C5 15.3998 7.54426 18.5793 11.0455 19.0605V20.4545H9.45455C8.73108 20.4545 8.14841 21.0583 8.18341 21.7897C8.19892 22.117 8.49205 22.3636 8.81818 22.3636H15.1818C15.5088 22.3636 15.8011 22.1164 15.8166 21.7897C15.85 21.0591 15.2693 20.4545 14.5455 20.4545H12.9545V19.1114C16.3631 18.6449 19 15.7176 19 12.1818V10.5551C19 10.0619 18.5744 9.63636 18.0455 9.63636Z" fill="black"/>
</svg>
