<svg width="24" height="24" viewBox="0 0 24 24" fill="none" xmlns="http://www.w3.org/2000/svg">
<path d="M21 17.1429C21 19.2731 19.2731 21 17.1429 21C15.0126 21 13.2857 19.2731 13.2857 17.1429C13.2857 16.9828 13.3139 16.8304 13.3329 16.6756L9.52878 14.7735C8.83393 15.4433 7.89777 15.8571 6.85714 15.8571C4.72687 15.8571 3 14.1303 3 12C3 9.86973 4.72687 8.14286 6.85714 8.14286C7.89616 8.14286 8.83513 8.5583 9.52902 9.22647L13.3331 7.32442C13.3138 7.17054 13.2857 6.9817 13.2857 6.85714C13.2857 4.72687 15.0126 3 17.1429 3C19.2731 3 21 4.72687 21 6.85714C21 8.98741 19.2731 10.7143 17.1429 10.7143C16.1038 10.7143 15.1649 10.2988 14.471 9.63067L10.6669 11.5327C10.6862 11.6866 10.7143 11.8393 10.7143 12C10.7143 12.1607 10.6862 12.3134 10.6661 12.4661L14.4702 14.3681C15.1661 13.6996 16.1022 13.2857 17.1429 13.2857C19.2723 13.2857 21 14.9772 21 17.1429Z" fill="black"/>
</svg>
