<svg width="24" height="24" viewBox="0 0 24 24" fill="none" xmlns="http://www.w3.org/2000/svg">
<path d="M9.42857 3H4.28571C3.57576 3 3 3.57576 3 4.28571V9.42857C3 10.1385 3.57576 10.7143 4.28571 10.7143H9.42857C10.1385 10.7143 10.7143 10.1385 10.7143 9.42857V4.28571C10.7143 3.57576 10.1397 3 9.42857 3ZM8.14286 8.14286H5.57143V5.57143H8.14286V8.14286ZM9.42857 13.2857H4.28571C3.57576 13.2857 3 13.8615 3 14.5714V19.7143C3 20.4242 3.57576 21 4.28571 21H9.42857C10.1385 21 10.7143 20.4242 10.7143 19.7143V14.5714C10.7143 13.8603 10.1397 13.2857 9.42857 13.2857ZM8.14286 18.4286H5.57143V15.8571H8.14286V18.4286ZM19.7143 3H14.5714C13.8615 3 13.2857 3.57576 13.2857 4.28571V9.42857C13.2857 10.1385 13.8615 10.7143 14.5714 10.7143H19.7143C20.4242 10.7143 21 10.1385 21 9.42857V4.28571C21 3.57576 20.4254 3 19.7143 3ZM18.4286 8.14286H15.8571V5.57143H18.4286V8.14286ZM17.1429 21H18.4286V19.7143H17.1429V21ZM19.7143 14.5714H17.1429V13.2857H13.2857V21H15.8571V17.1429H17.1429V18.4286H21V13.2857H19.7143V14.5714ZM19.7143 21H21V19.7143H19.7143V21Z" fill="black"/>
</svg>
