<svg width="24" height="24" viewBox="0 0 24 24" fill="none" xmlns="http://www.w3.org/2000/svg">
<path d="M18.9333 1.13702L17.3333 3.00122L15.0675 1.13706C14.8279 0.954808 14.505 0.954808 14.2654 1.13706L12 3.00122L9.73333 1.13702C9.49375 0.954766 9.17083 0.954766 8.93125 1.13702L6.66667 3.00122L5.06792 1.13702C4.625 0.803725 4 1.11618 4 1.66831V21.6641C4 22.2162 4.625 22.5287 5.0675 22.1954L6.66667 20.2958L8.9325 22.16C9.17208 22.3422 9.495 22.3422 9.73458 22.16L12 20.2958L14.2658 22.16C14.5054 22.3422 14.8283 22.3422 15.0679 22.16L17.3333 20.2958L18.9325 22.16C19.3708 22.5291 20 22.2166 20 21.6291V1.66831C20 1.11618 19.375 0.803725 18.9333 1.13702ZM16.6667 16.2958H7.33333C6.96517 16.2958 6.66667 15.9976 6.66667 15.6296C6.66667 15.2613 6.96529 14.9625 7.33333 14.9625H16.6667C17.0349 14.9625 17.2958 15.2612 17.2958 15.6296C17.3333 16.0333 17.0375 16.2958 16.6667 16.2958ZM16.6667 12.2958H7.33333C6.96517 12.2958 6.66667 11.9976 6.66667 11.6296C6.66667 11.2613 6.96529 10.9629 7.33333 10.9629H16.6667C17.0349 10.9629 17.2958 11.2615 17.2958 11.6296C17.3333 12.0333 17.0375 12.2958 16.6667 12.2958ZM16.6667 8.29581H7.33333C6.96517 8.29581 6.66667 7.99747 6.66667 7.62956C6.66667 7.26135 6.96529 6.96289 7.33333 6.96289H16.6667C17.0349 6.96289 17.2958 7.26143 17.2958 7.62956C17.3333 8.03331 17.0375 8.29581 16.6667 8.29581Z" fill="black"/>
</svg>
