<svg width="24" height="24" viewBox="0 0 24 24" fill="none" xmlns="http://www.w3.org/2000/svg">
<path d="M20.9745 8.39945L15.5116 7.60503L13.0702 2.66457C12.8548 2.22281 12.4257 1.99993 11.9668 2C11.575 2 11.1458 2.22012 10.9294 2.6642L8.48531 7.60465L3.02506 8.39945C2.04481 8.54125 1.65226 9.74651 2.36273 10.4368L6.31435 14.2467L5.38073 19.7095C5.2464 20.4819 5.86582 21.1051 6.55988 21.1051C6.74391 21.1051 6.93339 21.0613 7.11512 20.9651L12.0003 18.4035L16.8848 20.967C17.0664 21.0623 17.2552 21.1056 17.4389 21.1056C18.1334 21.1056 18.7528 20.4858 18.62 19.7096L17.6852 14.2803L21.6368 10.4705C22.3477 9.74651 21.9559 8.54125 20.9745 8.39945ZM15.8139 13.9631L16.6497 18.8177L12.2765 16.5236C12.1028 16.4325 11.8955 16.4325 11.7216 16.5236L7.35094 18.8177L8.18679 13.9631C8.22037 13.769 8.12336 13.5713 8.01514 13.4332L4.48145 9.99689L9.36593 9.28642C9.55997 9.25769 9.72788 9.13455 9.81371 8.95917L12.0003 4.53702L14.1866 8.9588C14.2736 9.13481 14.4416 9.25679 14.6359 9.28508L19.5204 9.99555L15.9867 13.4318C15.8437 13.5713 15.7803 13.769 15.8139 13.9631Z" fill="black"/>
</svg>
