<svg width="24" height="24" viewBox="0 0 24 24" fill="none" xmlns="http://www.w3.org/2000/svg">
<path d="M19.9442 8.07811C19.9569 8.25708 19.9569 8.43609 19.9569 8.61506C19.9569 14.0738 15.8326 20.3636 8.29444 20.3636C5.97209 20.3636 3.81473 19.686 2 18.51C2.32996 18.5483 2.64719 18.5611 2.98985 18.5611C4.90607 18.5611 6.67006 17.9091 8.0787 16.7969C6.27666 16.7585 4.7665 15.5696 4.24618 13.9332C4.50001 13.9716 4.7538 13.9971 5.02032 13.9971C5.38833 13.9971 5.75638 13.946 6.099 13.8565C4.22083 13.473 2.81215 11.8111 2.81215 9.80397V9.75285C3.35782 10.0597 3.99239 10.2514 4.66493 10.277C3.56087 9.53548 2.83754 8.26987 2.83754 6.83804C2.83754 6.07101 3.04055 5.36788 3.3959 4.75424C5.41369 7.25992 8.4467 8.89626 11.8477 9.07527C11.7843 8.76845 11.7462 8.44888 11.7462 8.12927C11.7462 5.85367 13.5736 4 15.8452 4C17.0254 4 18.0914 4.49858 18.8401 5.30398C19.7665 5.12501 20.6548 4.77982 21.4416 4.30682C21.137 5.26565 20.4898 6.07105 19.6396 6.58238C20.4645 6.49293 21.264 6.26277 22 5.9432C21.4417 6.76134 20.7437 7.49001 19.9442 8.07811Z" fill="black"/>
</svg>
