<?xml version="1.0" encoding="utf-8"?>
<!-- Generator: Adobe Illustrator 24.0.1, SVG Export Plug-In . SVG Version: 6.00 Build 0)  -->
<svg version="1.1" id="レイヤー_1" xmlns="http://www.w3.org/2000/svg" xmlns:xlink="http://www.w3.org/1999/xlink" x="0px"
	 y="0px" viewBox="0 0 148.9 93.1" style="enable-background:new 0 0 148.9 93.1;" xml:space="preserve">
<style type="text/css">
	.st0{opacity:0.1;}
</style>
<g class="st0">
	<path d="M138,87.3l-24-73.6l16.7-12L129.5,0L0,93l148.9,0v-5.8H138z M74.7,84c-7.2,0-13-8.1-13-18.1c0-10,5.8-18.1,13-18.1
		c7.2,0,13,8.1,13,18.1C87.8,75.8,81.9,84,74.7,84z M105.8,76.8c-7.5,0-13.6-8.5-13.6-19c0-10.5,6.1-19,13.6-19s13.6,8.5,13.6,19
		C119.3,68.2,113.2,76.8,105.8,76.8z"/>
</g>
<path class="st0" d="M77.6,51.9c-2.9,0-5.2,3.2-5.2,7.1s2.3,7.1,5.2,7.1c2.9,0,5.2-3.2,5.2-7.1C82.7,55.1,80.4,51.9,77.6,51.9z"/>
<path class="st0" d="M108,42.2c-3,0-5.4,3.3-5.4,7.4c0,4.1,2.4,7.4,5.4,7.4s5.4-3.3,5.4-7.4C113.5,45.6,111,42.2,108,42.2z"/>
</svg>
