<?xml version="1.0" encoding="utf-8"?>
<!-- Generator: Adobe Illustrator 17.1.0, SVG Export Plug-In . SVG Version: 6.00 Build 0)  -->
<!DOCTYPE svg PUBLIC "-//W3C//DTD SVG 1.1//EN" "http://www.w3.org/Graphics/SVG/1.1/DTD/svg11.dtd" [
	<!ENTITY st0 "fill:#221714;">
	<!ENTITY st1 "fill:#07569E;">
	<!ENTITY st2 "fill:#38383B;">
	<!ENTITY st3 "fill:#54779F;">
	<!ENTITY st4 "fill:#666666;">
]>
<svg version="1.1" id="レイヤー_1" xmlns="http://www.w3.org/2000/svg" xmlns:xlink="http://www.w3.org/1999/xlink" x="0px"
	 y="0px" viewBox="0 0 198.812 19.125" style="enable-background:new 0 0 198.812 19.125;" xml:space="preserve">
<g>
	<g>
		<path style="&st0;" d="M59.21,11.627c0,1.357-1.244,2.02-2.442,2.02c-1.198,0-2.465-0.663-2.465-2.02V0.679
			c-1.29,0-2.649,0-3.94,0v11.079c0,3.548,3.11,5.598,6.405,5.598c3.317,0,6.428-2.05,6.428-5.598V0.679c-1.29,0-2.673,0-3.986,0
			V11.627z"/>
		<path style="&st0;" d="M7.055,7.087c-1.471-0.163-2.68-0.396-2.592-1.634c0.149-2.08,4.53-2.148,4.53,0.023
			c1.424,0,2.498,0,3.97,0C13.056-1.576,0.354-1.599,0.494,5.453c0.047,3.549,2.468,4.687,5.931,5.043
			c1.629,0.168,2.984,0.362,2.989,1.506c0.008,1.957-5.114,1.88-5.114-0.198c-1.424,0-2.639,0-4.04,0
			c-0.093,7.192,13.216,7.13,13.216,0.198C13.477,7.994,10.301,7.437,7.055,7.087z"/>
		<path style="&st0;" d="M25.847,11.627c0,1.357-1.244,2.02-2.442,2.02c-1.198,0-2.465-0.663-2.465-2.02V0.679
			c-1.29,0-2.649,0-3.94,0v11.079c0,3.548,3.11,5.598,6.405,5.598c3.317,0,6.428-2.05,6.428-5.598V0.679c-1.29,0-2.673,0-3.986,0
			V11.627z"/>
		<path style="&st0;" d="M46.343,0.679h-12.21c0,1.405,0,2.281,0,3.686h5.99l-6.589,12.441h12.878c0-1.405,0-2.281,0-3.686h-6.681
			L46.343,0.679z"/>
		<path style="&st0;" d="M74.579,0.679c-2.35,0-4.746,0-7.073,0c0,5.391,0,10.759,0,16.127c1.336,0,2.742,0,4.124,0V12.06h2.143
			l2.765,4.746h4.889l-3.438-5.713C82.066,8.327,80.914,0.702,74.579,0.679z M74.579,8.351H71.63c0-1.29,0-2.672,0-3.986
			c0.968,0,1.981-0.023,2.949,0C76.929,4.388,76.814,8.351,74.579,8.351z"/>
		<path style="&st0;" d="M93.003,4.273c0-1.382,0-3.594,0-3.594h-8.024c0,0,0,2.212,0,3.594h1.97v8.916h-1.97v3.617
			c0,0,5.282,0,8.024,0c0-1.405,0-2.258,0-3.617h-1.976V4.273H93.003z"/>
	</g>
</g>
<g>
	<g>
		<g>
			<g>
				<path style="&st1;" d="M132.795,16.245h0.573c0.029,0,0.065-0.02,0.079-0.045l2.369-3.878l1.288,4.437
					c0.008,0.029,0.038,0.051,0.067,0.051h2.486c0.029,0,0.046-0.022,0.037-0.049l-2.622-8.302c-0.008-0.027-0.04-0.051-0.069-0.051
					h-0.933c-0.029,0-0.066,0.019-0.081,0.045l-3.194,4.95l-3.193-4.95c-0.016-0.026-0.053-0.045-0.082-0.045h-0.933
					c-0.03,0-0.061,0.024-0.069,0.051l-2.622,8.302c-0.009,0.027,0.008,0.049,0.037,0.049h2.486c0.029,0,0.059-0.022,0.067-0.051
					l1.288-4.437l2.369,3.878c0.014,0.025,0.05,0.045,0.08,0.045H132.795z"/>
				<path style="&st1;" d="M126.009,12.11v-0.002c-0.005-0.024-0.027-0.042-0.052-0.042h-0.333h-2.456h-4.293
					c-0.375,0-0.678,0.304-0.678,0.679s0.304,0.679,0.678,0.679h4.209c-0.501,1.324-2.197,2.298-4.209,2.298
					c-2.408,0-4.36-1.393-4.36-3.112c0-1.719,1.951-3.114,4.36-3.114c1.315,0,2.493,0.416,3.293,1.075
					c0.003,0.002,0.006,0.004,0.008,0.007c0.008,0.006,0.018,0.007,0.029,0.007h2.894c0.029,0,0.053-0.023,0.053-0.052
					c0-0.012-0.004-0.023-0.012-0.032c-0.002-0.004-0.004-0.004-0.004-0.006c-1.233-1.314-3.574-2.198-6.261-2.198
					c-3.967,0-7.183,1.931-7.183,4.313c0,2.383,3.216,4.314,7.183,4.314c3.966,0,7.182-1.931,7.182-4.314
					C126.057,12.441,126.04,12.273,126.009,12.11"/>
				<path style="&st1;" d="M146.716,8.296c-3.966,0-7.182,1.931-7.182,4.314c0,2.383,3.215,4.313,7.182,4.313
					c3.967,0,7.183-1.93,7.183-4.313C153.899,10.227,150.683,8.296,146.716,8.296 M146.716,15.722c-2.407,0-4.359-1.393-4.359-3.112
					c0-1.719,1.952-3.114,4.359-3.114c2.408,0,4.361,1.395,4.361,3.114C151.077,14.328,149.125,15.722,146.716,15.722"/>
			</g>
		</g>
		<path style="&st2;" d="M184.179,16.675c-0.006,0.074,0.05,0.134,0.124,0.134h1.5c0.074,0,0.139-0.06,0.144-0.134l0.258-3.435
			c0.005-0.074-0.05-0.134-0.124-0.134h-1.5c-0.074,0-0.139,0.06-0.144,0.134L184.179,16.675z"/>
		<path style="&st2;" d="M192.86,13.107c-0.074,0-0.129,0.06-0.124,0.134l0.26,3.435c0.006,0.074,0.071,0.134,0.144,0.134h1.5
			c0.074,0,0.214-0.06,0.208-0.134l-0.345-3.435c-0.006-0.074-0.07-0.134-0.144-0.134H192.86z"/>
		<path style="&st2;" d="M194.454,11.406c0.074,0,0.134-0.06,0.134-0.134V9.828c0-0.074-0.06-0.134-0.134-0.134h-4.011
			c-0.074,0-0.134-0.06-0.134-0.134V8.542c0-0.074-0.06-0.134-0.134-0.134h-1.444c-0.074,0-0.134,0.06-0.134,0.134V9.56
			c0,0.074-0.06,0.134-0.134,0.134h-3.982c-0.074,0-0.134,0.06-0.134,0.134v1.443c0,0.074,0.06,0.134,0.134,0.134h3.982
			c0.074,0,0.134,0.06,0.134,0.134v5.135c0,0.074,0.06,0.134,0.134,0.134h1.444c0.074,0,0.134-0.06,0.134-0.134V11.54
			c0-0.074,0.06-0.134,0.134-0.134H194.454z"/>
		<path style="&st3;" d="M195.425,10.406c0,0.074,0.06,0.134,0.134,0.134h1.017c0.074,0,0.134-0.06,0.134-0.134V8.43
			c0-0.074-0.06-0.134-0.134-0.134h-1.017c-0.074,0-0.134,0.06-0.134,0.134V10.406z"/>
		<path style="&st3;" d="M197.4,10.406c0,0.074,0.06,0.134,0.134,0.134h1.017c0.074,0,0.134-0.06,0.134-0.134V8.43
			c0-0.074-0.06-0.134-0.134-0.134h-1.017c-0.074,0-0.134,0.06-0.134,0.134V10.406z"/>
		<path style="&st2;" d="M156.123,14.279c-0.035,0.035-0.035,0.093,0,0.128l1.083,1.083c0.035,0.035,0.093,0.035,0.128,0
			l3.924-3.924c0.035-0.035,0.093-0.035,0.128,0l5.125,5.134c0.035,0.035,0.092,0.035,0.128,0l1.083-1.083
			c0.035-0.035,0.035-0.093,0-0.128l-6.334-6.346c-0.035-0.035-0.093-0.035-0.128,0L156.123,14.279z"/>
		<path style="&st3;" d="M166.633,10.825c0.698,0,1.265-0.566,1.265-1.264c0-0.698-0.566-1.265-1.265-1.265
			c-0.698,0-1.264,0.566-1.264,1.265C165.368,10.259,165.934,10.825,166.633,10.825"/>
		<path style="&st2;" d="M170.582,16.72c-0.006,0.049,0.03,0.09,0.08,0.09h1.663c0.05,0,0.095-0.04,0.101-0.09l0.899-7.477
			c0.006-0.049-0.03-0.09-0.08-0.09h-1.663c-0.05,0-0.095,0.04-0.101,0.09L170.582,16.72z"/>
		<path style="&st2;" d="M177.318,9.153c-0.05,0-0.085,0.04-0.08,0.09l0.908,7.477c0.006,0.049,0.051,0.09,0.101,0.09h1.663
			c0.05,0,0.085-0.04,0.08-0.09l-0.908-7.477c-0.006-0.049-0.052-0.09-0.101-0.09H177.318z"/>
		<path style="&st3;" d="M181.522,8.296c-0.698,0-1.264,0.566-1.264,1.264c0,0.698,0.566,1.265,1.264,1.265
			c0.698,0,1.264-0.566,1.264-1.265C182.786,8.862,182.22,8.296,181.522,8.296"/>
	</g>
	<g>
		<path style="&st4;" d="M100.204,9.981v3.025h0.027c0.053-0.072,0.122-0.147,0.206-0.224c0.084-0.078,0.184-0.149,0.301-0.216
			c0.117-0.066,0.252-0.121,0.408-0.166c0.155-0.045,0.332-0.067,0.529-0.067c0.305,0,0.586,0.058,0.844,0.175
			c0.257,0.117,0.479,0.277,0.664,0.48c0.186,0.203,0.329,0.443,0.431,0.718c0.102,0.275,0.152,0.571,0.152,0.889
			s-0.049,0.615-0.148,0.893c-0.099,0.278-0.239,0.521-0.422,0.727c-0.182,0.207-0.404,0.372-0.664,0.493
			c-0.26,0.123-0.555,0.184-0.884,0.184c-0.305,0-0.591-0.066-0.857-0.197c-0.266-0.131-0.475-0.323-0.624-0.574h-0.018v0.646
			h-1.023V9.981H100.204z M102.673,14.595c0-0.167-0.025-0.334-0.076-0.498c-0.051-0.164-0.127-0.312-0.229-0.444
			c-0.102-0.131-0.23-0.238-0.386-0.319c-0.156-0.081-0.338-0.121-0.547-0.121c-0.198,0-0.374,0.042-0.529,0.126
			c-0.156,0.084-0.289,0.192-0.4,0.323c-0.111,0.131-0.195,0.281-0.251,0.449c-0.057,0.167-0.085,0.335-0.085,0.503
			c0,0.167,0.028,0.334,0.085,0.498c0.057,0.165,0.14,0.313,0.251,0.445c0.111,0.131,0.244,0.237,0.4,0.318
			c0.155,0.081,0.332,0.121,0.529,0.121c0.209,0,0.392-0.041,0.547-0.125c0.156-0.084,0.284-0.191,0.386-0.323
			c0.102-0.131,0.178-0.281,0.229-0.449C102.647,14.93,102.673,14.762,102.673,14.595z"/>
		<path style="&st4;" d="M104.231,12.459h1.194l1.203,3.132h0.018l1.068-3.132h1.122l-2.037,5.233
			c-0.078,0.197-0.161,0.372-0.251,0.525c-0.09,0.153-0.198,0.281-0.323,0.386c-0.126,0.104-0.274,0.184-0.444,0.238
			c-0.171,0.054-0.376,0.081-0.615,0.081c-0.09,0-0.181-0.005-0.274-0.014c-0.093-0.009-0.187-0.025-0.283-0.049l0.09-0.934
			c0.072,0.024,0.142,0.04,0.211,0.049c0.069,0.01,0.133,0.014,0.193,0.014c0.113,0,0.209-0.014,0.287-0.04
			c0.078-0.027,0.144-0.069,0.197-0.126c0.054-0.057,0.102-0.127,0.144-0.21c0.042-0.084,0.087-0.183,0.135-0.296l0.216-0.548
			L104.231,12.459z"/>
	</g>
</g>
</svg>
