<svg viewBox="0 0 1075 650" xmlns="http://www.w3.org/2000/svg"><rect fill="#016fd0" height="650" rx="80.26" width="1075" x="-1.02"/><path d="m207.54 519.85v-168.68h178.59l19.17 25 19.79-25h648.25v157s-16.95 11.47-36.56 11.64h-358.95l-21.6-26.59v26.59h-70.79v-45.35s-9.68 6.33-30.58 6.33h-24.1v39.06h-107.18l-19.14-25.52-19.44 25.52z" fill="#fff"/><path d="m-1 224.05 40.28-93.9h69.65l22.85 52.6v-52.6h86.58l13.61 38 13.19-38h388.63v19.11s20.44-19.11 54-19.11l126.11.44 22.46 51.91v-52.35h72.45l19.95 29.85v-29.85h73.12v168.68h-73.12l-19.11-29.92v29.92h-106.45l-10.7-26.59h-28.62l-10.53 26.59h-72.19c-28.9 0-47.37-18.72-47.37-18.72v18.72h-108.79l-21.61-26.59v26.59h-404.8l-10.7-26.59h-28.53l-10.62 26.59h-49.74z" fill="#fff"/><g fill="#016fd0"><path d="m53.51 151-54.32 126.24h35.37l10-25.29h58.27l10 25.29h36.17l-54.31-126.24zm20.1 29.39 17.76 44.19h-35.57z"/><path d="m152.7 277.22v-126.29l50.26.18 29.23 81.43 28.53-81.61h49.85v126.29h-31.57v-93.06l-33.47 93.06h-27.69l-33.57-93.06v93.06z"/><path d="m332.18 277.22v-126.29h103v28.25h-71.1v21.6h69.47v26.59h-69.47v22.43h71.13v27.42z"/><path d="m453.49 151v126.24h31.57v-44.86h13.3l37.85 44.86h38.59l-41.55-46.53a38.45 38.45 0 0 0 34.64-38.79c0-26.58-20.86-41-44.14-41zm31.57 28.25h36.09c8.66 0 15 6.77 15 13.29 0 8.39-8.16 13.3-14.49 13.3h-36.6v-26.64z"/><path d="m613 277.22h-32.22v-126.29h32.22z"/><path d="m689.46 277.22h-7c-33.67 0-54.12-26.52-54.12-62.63 0-37 20.22-63.66 62.74-63.66h34.92v29.91h-36.15c-17.26 0-29.47 13.47-29.47 34.07 0 24.45 14 34.73 34.07 34.73h8.31z"/><path d="m758.17 151-54.32 126.24h35.36l10-25.29h58.29l10 25.29h36.14l-54.29-126.24zm20.1 29.39 17.73 44.14h-35.55l17.82-44.19z"/><path d="m857.31 277.22v-126.29h40.14l51.26 79.35v-79.35h31.57v126.29h-38.84l-52.56-81.43v81.43z"/><path d="m229.14 498.24v-126.24h103v28.2h-71.09v21.6h69.46v26.59h-69.46v22.43h71.13v27.42z"/><path d="m734 498.24v-126.24h103v28.2h-71.09v21.6h69.09v26.59h-69.09v22.43h71.09v27.42z"/><path d="m336.17 498.24 50.17-62.37-51.34-63.87h39.78l30.59 39.52 30.63-39.52h38.22l-50.68 63.14 50.25 63.15h-39.73l-29.7-38.89-29 38.89z"/><path d="m477.58 372v126.26h32.42v-39.88h33.24c28.12 0 49.43-14.92 49.43-43.93 0-24-16.71-42.48-45.33-42.48zm32.42 28.53h35c9.09 0 15.58 5.57 15.58 14.54 0 8.43-6.46 14.54-15.68 14.54h-34.9z"/><path d="m606.37 372v126.24h31.63v-44.87h13.29l37.86 44.87h38.59l-41.55-46.53a38.46 38.46 0 0 0 34.64-38.79c0-26.58-20.86-41-44.14-41zm31.63 28.2h36c8.66 0 15 6.77 15 13.29 0 8.39-8.16 13.3-14.49 13.3h-36.51z"/><path d="m851.66 498.24v-27.42h63.19c9.35 0 13.4-5.05 13.4-10.59 0-5.31-4-10.68-13.4-10.68h-28.56c-24.82 0-38.64-15.12-38.64-37.82 0-20.26 12.66-39.78 49.54-39.78h61.49l-13.3 28.41h-53.17c-10.17 0-13.3 5.34-13.3 10.43s3.87 11 11.63 11h29.92c27.67 0 39.67 15.7 39.67 36.25 0 22.1-13.38 40.19-41.18 40.19z"/><path d="m967.54 498.24v-27.42h63.19c9.35 0 13.4-5.05 13.4-10.59 0-5.31-4-10.68-13.4-10.68h-28.55c-24.82 0-38.65-15.12-38.65-37.82 0-20.26 12.66-39.78 49.55-39.78h61.48l-13.29 28.41h-53.18c-10.17 0-13.29 5.34-13.29 10.43s3.86 11 11.63 11h29.91c27.67 0 39.68 15.7 39.68 36.25 0 22.1-13.38 40.19-41.19 40.19z"/></g></svg>