<svg viewBox="0 0 1075 650" xmlns="http://www.w3.org/2000/svg" xmlns:xlink="http://www.w3.org/1999/xlink"><linearGradient id="a" gradientTransform="matrix(2.05 0 0 -2.05 4030.8 1296.76)" gradientUnits="userSpaceOnUse" x1="-1646.37" x2="-1552.51" y1="459.8" y2="459.8"><stop offset="0" stop-color="#007940"/><stop offset=".23" stop-color="#00873f"/><stop offset=".74" stop-color="#40a737"/><stop offset="1" stop-color="#5cb531"/></linearGradient><linearGradient id="b" x1="-1646.37" x2="-1552.59" xlink:href="#a" y1="474.32" y2="474.32"/><linearGradient id="c" x1="-1646.37" x2="-1552.51" xlink:href="#a" y1="490.29" y2="490.29"/><linearGradient id="d" gradientTransform="matrix(2.05 0 0 -2.05 4030.8 1296.76)" gradientUnits="userSpaceOnUse" x1="-1856.49" x2="-1761.18" y1="474.42" y2="474.42"><stop offset="0" stop-color="#1f286f"/><stop offset=".48" stop-color="#004e94"/><stop offset=".83" stop-color="#0066b1"/><stop offset="1" stop-color="#006fbc"/></linearGradient><linearGradient id="e" gradientTransform="matrix(2.05 0 0 -2.05 4030.8 1296.76)" gradientUnits="userSpaceOnUse" x1="-1751.93" x2="-1659.36" y1="474.21" y2="474.21"><stop offset="0" stop-color="#6c2c2f"/><stop offset=".17" stop-color="#882730"/><stop offset=".57" stop-color="#be1833"/><stop offset=".86" stop-color="#dc0436"/><stop offset="1" stop-color="#e60039"/></linearGradient><rect fill="#fff" height="626" rx="68.26" width="1051" x="12" y="12"/><path d="m994.74 24a56.51 56.51 0 0 1 56.26 56.26v489.48a56.51 56.51 0 0 1 -56.26 56.26h-914.48a56.51 56.51 0 0 1 -56.26-56.26v-489.48a56.51 56.51 0 0 1 56.26-56.26zm0-24h-914.48a80.5 80.5 0 0 0 -80.26 80.26v489.48a80.5 80.5 0 0 0 80.26 80.26h914.48a80.5 80.5 0 0 0 80.26-80.26v-489.48a80.5 80.5 0 0 0 -80.26-80.26z" fill="#ccc"/><path d="m695.22 375.08h44.94c1.28 0 4.28-.43 5.56-.43 8.56-1.71 15.84-9.42 15.84-20.12a20.77 20.77 0 0 0 -15.84-20.11 22.47 22.47 0 0 0 -5.56-.43h-44.94z" fill="url(#a)"/><path d="m735 91.31a77.91 77.91 0 0 0 -77.9 77.9v80.89h110a43.75 43.75 0 0 1 7.7.43c24.83 1.28 43.23 14.12 43.23 36.38 0 17.55-12.41 32.53-35.52 35.52v.86c25.27 1.71 44.49 15.83 44.49 37.71 0 23.54-21.4 38.95-49.65 38.95h-120.65v158.31h114.3a77.91 77.91 0 0 0 77.9-77.9v-389z" fill="url(#b)"/><path d="m756 292a18.2 18.2 0 0 0 -15.83-18.4c-.86 0-3-.43-4.28-.43h-40.67v37.67h40.66c1.28 0 3.85 0 4.28-.43a18.21 18.21 0 0 0 15.84-18.41z" fill="url(#c)"/><path d="m304.46 91.31a77.91 77.91 0 0 0 -77.9 77.9v192.17c21.83 10.7 44.51 17.55 67.2 17.55 27 0 41.51-16.27 41.51-38.52v-90.74h66.73v90.33c0 35.1-21.83 63.77-95.87 63.77-44.94 0-80-9.84-80-9.84v163.9h114.28a77.9 77.9 0 0 0 77.89-77.9v-388.62z" fill="url(#d)"/><path d="m519.74 91.31a77.91 77.91 0 0 0 -77.9 77.9v101.86c19.69-16.69 53.93-27.39 109.14-24.82 29.53 1.28 61.21 9.41 61.21 9.41v33c-15.84-8.13-34.67-15.41-59.07-17.12-41.94-3-67.19 17.55-67.19 53.5 0 36.38 25.25 56.92 67.19 53.5 24.4-1.71 43.23-9.42 59.07-17.12v33s-31.25 8.13-61.21 9.41c-55.21 2.57-89.45-8.13-109.14-24.82v179.68h114.28a77.9 77.9 0 0 0 77.88-77.9v-389.48z" fill="url(#e)"/></svg>