<svg viewBox="0 0 1075 650" xmlns="http://www.w3.org/2000/svg"><rect height="650" rx="80.26" width="1075"/><path d="m338.09 568.46v-32.29a19.16 19.16 0 0 0 -17.79-20.44 18.06 18.06 0 0 0 -2.44 0 19.91 19.91 0 0 0 -18.09 9.15 18.88 18.88 0 0 0 -17-9.15 17 17 0 0 0 -15.07 7.64v-6.37h-11.2v51.45h11.3v-28.3a12.07 12.07 0 0 1 10.31-13.58 12.51 12.51 0 0 1 2.29-.09c7.42 0 11.19 4.84 11.19 13.56v28.64h11.3v-28.53a12.11 12.11 0 0 1 10.44-13.58 12 12 0 0 1 2.16-.09c7.64 0 11.3 4.84 11.3 13.56v28.64zm167.22-51.46h-18.4v-15.6h-11.3v15.6h-10.23v10.22h10.44v23.69c0 11.94 4.63 19.05 17.87 19.05a26.36 26.36 0 0 0 14-4l-3.23-9.59a20.5 20.5 0 0 1 -9.9 2.91c-5.38 0-7.43-3.44-7.43-8.61v-23.44h18.3zm95.48-1.29a15.15 15.15 0 0 0 -13.56 7.53v-6.24h-11.09v51.45h11.2v-28.84c0-8.5 3.66-13.24 10.76-13.24a18.42 18.42 0 0 1 7 1.29l3.44-10.76a24 24 0 0 0 -8-1.4zm-144.34 5.39a38.44 38.44 0 0 0 -21-5.38c-13 0-21.52 6.24-21.52 16.47 0 8.39 6.24 13.56 17.76 15.17l5.38.76c6.14.86 9 2.47 9 5.38 0 4-4.09 6.24-11.73 6.24a27.42 27.42 0 0 1 -17.12-5.38l-5.38 8.72a37.14 37.14 0 0 0 22.28 6.67c14.86 0 23.47-7 23.47-16.79s-6.78-13.78-18-15.39l-5.38-.76c-4.84-.64-8.72-1.61-8.72-5.06s3.66-6 9.8-6a33 33 0 0 1 16.14 4.41zm299.83-5.38a15.15 15.15 0 0 0 -13.56 7.53v-6.25h-11.09v51.45h11.2v-28.84c0-8.5 3.66-13.24 10.76-13.24a18.42 18.42 0 0 1 7 1.29l3.41-10.76a24 24 0 0 0 -8-1.4zm-144.28 26.91a26 26 0 0 0 25 26.93h2.43a26.94 26.94 0 0 0 18.57-6.16l-5.39-9a22.65 22.65 0 0 1 -13.44 4.6 16.52 16.52 0 0 1 0-32.94 22.58 22.58 0 0 1 13.45 4.63l5.39-9a26.94 26.94 0 0 0 -18.52-6.14 26 26 0 0 0 -27.42 24.45q-.08 1.21 0 2.43zm104.85 0v-25.63h-11.2v6.24a19.52 19.52 0 0 0 -16.15-7.53 26.91 26.91 0 0 0 0 53.82 19.55 19.55 0 0 0 16.19-7.53v6.25h11.2zm-41.66 0a15.48 15.48 0 1 1 0 1.22c0-.41.01-.85.04-1.22zm-135.05-26.91a26.91 26.91 0 1 0 .75 53.82 31.33 31.33 0 0 0 21.37-7l-5.38-8.29a24.49 24.49 0 0 1 -15 5.38 14.26 14.26 0 0 1 -15.36-12.63h38.21v-4.31c0-16.14-10-26.91-24.43-26.91zm0 10a12.75 12.75 0 0 1 13 12.48h-26.89a13.24 13.24 0 0 1 13.67-12.48zm280.46 17v-46.38h-10.76v26.91a19.53 19.53 0 0 0 -16.15-7.53 26.91 26.91 0 0 0 0 53.82 19.57 19.57 0 0 0 16.15-7.54v6.25h10.76zm18.68 18.28a5.28 5.28 0 0 1 2 .38 5.08 5.08 0 0 1 2.8 2.69 5 5 0 0 1 0 4 5.33 5.33 0 0 1 -1.13 1.61 5.39 5.39 0 0 1 -1.67 1.08 5 5 0 0 1 -2 .43 5.38 5.38 0 0 1 -4.85-3.12 5.09 5.09 0 0 1 0-4 5.56 5.56 0 0 1 1.13-1.62 5.32 5.32 0 0 1 3.88-1.45zm0 9.1a3.88 3.88 0 0 0 2.79-1.19 4 4 0 0 0 0-5.38 3.9 3.9 0 0 0 -1.23-.86 3.7 3.7 0 0 0 -1.56-.32 4 4 0 0 0 -1.57.32 3.88 3.88 0 0 0 1.73 7.43zm.32-6.41a2.2 2.2 0 0 1 1.4.43 1.36 1.36 0 0 1 .48 1.13 1.3 1.3 0 0 1 -.37 1 1.92 1.92 0 0 1 -1.13.48l1.56 1.78h-1.24l-1.46-1.78h-.48v1.78h-1v-4.74zm-1.19.92v1.29h1.19a1.16 1.16 0 0 0 .64 0 .53.53 0 0 0 0-.49.51.51 0 0 0 0-.48 1.16 1.16 0 0 0 -.64 0zm-59.2-21.86a15.48 15.48 0 1 1 0 1.22c-.04-.42-.03-.83 0-1.24zm-378 0v-25.75h-11.21v6.24a19.53 19.53 0 0 0 -16.15-7.53 26.91 26.91 0 0 0 0 53.82 19.57 19.57 0 0 0 16.15-7.53v6.25h11.19zm-41.65 0a14.37 14.37 0 1 1 -.14 1.33c0-.44 0-.88 0-1.33z" fill="#fff"/><path d="m452.73 124.92h169.54v304.68h-169.54z" fill="#ff5f00"/><path d="m463.5 277.29a193.39 193.39 0 0 1 74-152.37c-84.14-66.12-205.94-51.52-272.06 32.62s-51.52 205.94 32.61 272.06a193.76 193.76 0 0 0 239.45 0 193.42 193.42 0 0 1 -74-152.31z" fill="#eb001b"/><g fill="#f79e1b"><path d="m851 277.29c0 107.01-86.74 193.71-193.75 193.71a193.72 193.72 0 0 1 -119.75-41.4c84.14-66.12 98.74-187.93 32.62-272.06a193.61 193.61 0 0 0 -32.62-32.62c84.12-66.14 205.93-51.56 272.07 32.57a193.75 193.75 0 0 1 41.43 119.74z"/><path d="m832.49 397.31v-6.24h2.51v-1.3h-6.4v1.3h2.74v6.24zm12.44 0v-7.54h-1.93l-2.26 5.39-2.26-5.39h-1.72v7.54h1.4v-5.65l2.09 4.9h1.46l2.1-4.9v5.7z"/></g></svg>