<svg fill="none" height="88" viewBox="0 0 88 88" width="88" xmlns="http://www.w3.org/2000/svg" xmlns:xlink="http://www.w3.org/1999/xlink"><mask id="a" height="88" maskUnits="userSpaceOnUse" width="88" x="0" y="0"><circle cx="44" cy="44" fill="#fff" r="44"/></mask><circle cx="44" cy="44" fill="#f2f8fc" r="44"/><g mask="url(#a)"><path d="m95.668 82.3343-23.4084-71.9362 16.3022-11.70302-1.2308-1.69508-126.331 90.9768 145.281.0232v-5.6657z" fill="#000"/><path d="m33.9423 79.1067c-7.0133 0-12.7028-7.9645-12.7028-17.7402s5.6895-17.7403 12.7028-17.7403c6.99 0 12.7027 7.9646 12.7027 17.7403s-5.7127 17.7402-12.7027 17.7402z" fill="#fff"/><path d="m64.2013 72.0942c-7.2919 0-13.2369-8.3593-13.2369-18.6227 0-10.2633 5.945-18.6226 13.2369-18.6226s13.2369 8.3593 13.2369 18.6226c0 10.2634-5.945 18.6227-13.2369 18.6227z" fill="#fff"/><g fill="#000"><path d="m36.6825 47.7361c-2.8099 0-5.0625 3.1348-5.0625 6.9893 0 3.8546 2.2758 6.9893 5.0625 6.9893 2.81 0 5.0626-3.1347 5.0626-6.9893 0-3.8777-2.2758-6.9893-5.0626-6.9893z"/><path d="m66.4307 38.3088c-2.9261 0-5.2948 3.2508-5.2948 7.2447s2.3687 7.2447 5.2948 7.2447 5.2948-3.2508 5.2948-7.2447-2.3687-7.2447-5.2948-7.2447z"/></g></g></svg>